<svg id="svg" version="1.1" xmlns="http://www.w3.org/2000/svg" xmlns:xlink="http://www.w3.org/1999/xlink" width="256" height="256" viewBox="0, 0, 400,400"><g id="svgg"><path id="path0" d="M182.000 41.417 C 180.790 41.695,178.665 41.940,177.277 41.961 C 175.890 41.983,174.000 42.163,173.077 42.361 C 172.155 42.560,169.600 43.037,167.400 43.422 C 155.804 45.452,138.434 50.756,130.807 54.597 C 129.258 55.377,126.992 56.389,125.770 56.846 C 124.549 57.303,122.526 58.278,121.275 59.013 C 120.024 59.748,117.560 61.135,115.800 62.096 C 109.411 65.584,102.460 70.156,98.931 73.193 C 98.453 73.605,97.553 74.261,96.931 74.651 C 96.309 75.041,94.973 76.115,93.963 77.037 C 92.952 77.960,91.602 78.989,90.963 79.325 C 89.564 80.059,70.800 98.870,70.800 99.538 C 70.800 99.796,69.810 101.084,68.600 102.400 C 67.390 103.716,66.400 104.964,66.400 105.172 C 66.400 105.518,65.311 106.932,62.065 110.800 C 61.419 111.570,60.470 113.010,59.956 114.000 C 59.442 114.990,58.100 117.150,56.972 118.800 C 55.844 120.450,54.229 123.240,53.382 125.000 C 52.535 126.760,51.079 129.474,50.146 131.031 C 49.213 132.588,48.323 134.369,48.167 134.990 C 48.011 135.610,47.215 137.396,46.398 138.959 C 45.582 140.522,44.781 142.250,44.619 142.800 C 44.457 143.350,43.823 144.970,43.210 146.400 C 41.934 149.378,39.586 156.575,38.644 160.400 C 38.291 161.830,37.463 165.070,36.803 167.600 C 36.143 170.130,35.602 172.683,35.601 173.274 C 35.601 173.865,35.400 174.855,35.156 175.474 C 34.626 176.820,34.024 180.866,33.620 185.800 C 33.458 187.780,33.117 190.029,32.863 190.797 C 32.217 192.747,32.218 220.858,32.864 222.803 C 33.119 223.571,33.468 225.910,33.640 228.000 C 34.021 232.633,34.513 236.074,35.097 238.200 C 35.339 239.080,35.756 241.060,36.023 242.600 C 36.290 244.140,36.999 247.110,37.598 249.200 C 38.197 251.290,38.897 254.000,39.155 255.221 C 39.412 256.443,40.157 258.873,40.810 260.621 C 41.463 262.370,41.998 264.034,41.999 264.319 C 41.999 264.605,42.376 265.595,42.835 266.519 C 43.294 267.444,43.989 269.100,44.379 270.201 C 45.532 273.452,50.221 282.443,50.589 282.108 C 50.776 281.939,50.812 282.003,50.670 282.252 C 50.265 282.962,54.592 291.332,57.983 296.400 C 59.676 298.930,61.753 302.080,62.599 303.400 C 64.202 305.902,64.987 306.914,68.616 311.150 C 69.817 312.553,70.800 313.881,70.800 314.101 C 70.800 314.811,83.705 327.581,84.160 327.322 C 84.402 327.184,84.462 327.223,84.294 327.408 C 83.892 327.851,86.004 330.045,86.523 329.724 C 86.743 329.588,86.811 329.659,86.672 329.883 C 86.534 330.106,87.659 331.484,89.172 332.945 C 91.823 335.504,92.734 336.155,92.189 335.100 C 92.047 334.825,92.322 335.050,92.800 335.600 C 93.278 336.150,93.537 336.330,93.376 336.000 C 93.138 335.513,93.184 335.494,93.621 335.900 C 94.298 336.528,94.943 336.554,94.562 335.938 C 94.389 335.659,94.452 335.585,94.721 335.751 C 94.965 335.902,95.076 336.257,94.968 336.540 C 94.732 337.153,96.128 339.026,97.279 339.642 C 97.933 339.992,98.037 339.972,97.798 339.540 C 97.634 339.243,98.069 339.667,98.764 340.482 C 99.460 341.297,100.247 341.885,100.514 341.789 C 100.781 341.693,101.450 341.987,102.000 342.442 C 102.550 342.897,102.775 343.153,102.500 343.011 C 101.454 342.470,102.064 343.136,103.577 344.184 C 104.444 344.785,105.331 345.166,105.549 345.032 C 105.767 344.897,106.075 344.998,106.234 345.255 C 106.415 345.548,106.350 345.616,106.062 345.438 C 105.808 345.281,105.600 345.229,105.600 345.323 C 105.600 345.711,108.856 347.613,109.179 347.413 C 109.372 347.294,109.919 347.692,110.395 348.298 C 110.870 348.904,111.134 349.157,110.981 348.860 C 110.757 348.425,110.868 348.408,111.552 348.774 C 112.018 349.024,112.400 349.412,112.400 349.638 C 112.400 349.863,112.580 349.936,112.800 349.800 C 113.020 349.664,113.200 349.773,113.200 350.043 C 113.200 350.313,113.317 350.416,113.460 350.273 C 113.604 350.130,113.977 350.325,114.290 350.706 C 114.659 351.156,114.763 351.189,114.586 350.800 C 114.435 350.470,114.737 350.682,115.256 351.272 C 116.180 352.320,127.928 358.454,127.411 357.618 C 127.240 357.341,127.502 357.355,128.162 357.655 C 128.719 357.909,129.063 358.298,128.926 358.520 C 128.789 358.742,128.868 358.805,129.102 358.661 C 129.710 358.285,130.846 358.801,130.532 359.310 C 130.367 359.577,130.517 359.641,130.934 359.481 C 131.300 359.340,131.600 359.394,131.600 359.600 C 131.600 359.806,131.870 359.871,132.200 359.745 C 132.530 359.618,132.800 359.708,132.800 359.945 C 132.800 360.181,133.070 360.271,133.400 360.145 C 133.730 360.018,134.000 360.124,134.000 360.381 C 134.000 360.637,134.165 360.745,134.366 360.621 C 134.567 360.497,134.800 360.600,134.884 360.851 C 134.983 361.148,135.273 361.070,135.718 360.625 C 136.093 360.250,136.400 360.100,136.400 360.291 C 136.400 360.483,136.175 360.867,135.900 361.144 C 135.499 361.548,135.551 361.590,136.166 361.356 C 136.730 361.141,136.848 361.199,136.616 361.575 C 136.379 361.958,136.526 362.014,137.200 361.800 C 137.896 361.579,138.026 361.637,137.773 362.057 C 137.507 362.499,137.561 362.507,138.060 362.103 C 138.397 361.830,138.821 361.740,139.001 361.903 C 139.180 362.067,139.198 361.840,139.040 361.400 C 138.815 360.773,138.858 360.704,139.239 361.083 C 139.622 361.462,139.615 361.700,139.206 362.192 C 138.762 362.728,138.791 362.778,139.409 362.541 C 139.903 362.352,140.041 362.411,139.845 362.727 C 139.652 363.040,139.782 363.105,140.245 362.927 C 140.764 362.728,140.848 362.803,140.589 363.232 C 140.314 363.688,140.395 363.681,140.998 363.200 C 141.683 362.653,141.726 362.665,141.477 363.326 C 141.253 363.926,141.353 364.005,142.053 363.783 C 142.661 363.590,142.815 363.651,142.600 364.000 C 142.382 364.353,142.546 364.408,143.200 364.200 C 143.854 363.992,144.018 364.047,143.800 364.400 C 143.584 364.749,143.740 364.810,144.350 364.616 C 144.887 364.445,145.200 364.519,145.200 364.816 C 145.200 365.074,145.470 365.182,145.800 365.055 C 146.130 364.929,146.400 365.019,146.400 365.255 C 146.400 365.492,146.670 365.582,147.000 365.455 C 147.330 365.329,147.600 365.394,147.600 365.600 C 147.600 365.806,147.870 365.871,148.200 365.745 C 148.530 365.618,148.800 365.726,148.800 365.984 C 148.800 366.272,149.110 366.356,149.600 366.200 C 150.079 366.048,150.400 366.128,150.400 366.400 C 150.400 366.672,150.721 366.752,151.200 366.600 C 151.649 366.458,152.000 366.528,152.000 366.760 C 152.000 366.988,152.270 367.071,152.600 366.945 C 152.930 366.818,153.200 366.897,153.200 367.120 C 153.200 367.343,153.588 367.424,154.063 367.300 C 154.729 367.125,154.848 367.202,154.586 367.637 C 154.297 368.117,154.347 368.119,154.923 367.651 C 155.557 367.137,155.788 367.307,155.625 368.168 C 155.586 368.370,155.816 368.319,156.135 368.054 C 156.591 367.676,156.832 367.689,157.261 368.118 C 157.561 368.419,158.051 368.583,158.350 368.483 C 158.648 368.384,159.049 368.549,159.240 368.851 C 159.527 369.304,159.591 369.295,159.607 368.800 C 159.622 368.323,159.738 368.348,160.174 368.924 C 160.502 369.356,160.824 369.484,160.974 369.241 C 161.253 368.790,162.447 369.112,162.876 369.755 C 163.050 370.017,163.457 369.891,163.985 369.414 C 164.646 368.815,164.920 368.761,165.309 369.153 C 165.698 369.544,165.653 369.592,165.095 369.379 C 164.557 369.174,164.450 369.265,164.642 369.766 C 164.829 370.253,165.027 370.310,165.414 369.988 C 165.801 369.667,166.033 369.730,166.315 370.234 C 166.745 371.003,167.515 370.696,167.928 369.590 C 168.177 368.923,168.267 368.914,169.000 369.485 C 169.644 369.986,169.663 370.061,169.100 369.866 C 168.715 369.734,168.400 369.799,168.400 370.013 C 168.400 370.226,168.760 370.400,169.200 370.400 C 169.640 370.400,170.000 370.591,170.000 370.824 C 170.000 371.057,170.189 371.131,170.419 370.988 C 170.707 370.810,170.691 370.519,170.370 370.064 C 170.111 369.699,170.373 369.905,170.950 370.522 C 171.898 371.535,172.188 371.581,172.046 370.696 C 172.019 370.528,172.358 370.617,172.799 370.892 C 173.239 371.167,173.600 371.551,173.600 371.746 C 173.600 371.940,174.590 372.017,175.800 371.917 C 177.010 371.816,178.000 371.896,178.000 372.094 C 178.000 372.292,178.360 372.340,178.800 372.200 C 179.240 372.060,179.600 372.093,179.600 372.273 C 179.600 372.453,182.030 372.537,185.000 372.461 C 188.739 372.364,190.400 372.457,190.400 372.761 C 190.400 373.002,190.670 373.200,191.000 373.200 C 191.726 373.200,191.799 372.536,191.100 372.291 C 190.825 372.195,191.114 372.112,191.743 372.108 C 192.371 372.104,192.706 372.213,192.487 372.350 C 192.235 372.508,192.271 372.769,192.585 373.060 C 192.858 373.313,193.308 373.381,193.585 373.209 C 194.185 372.838,195.600 373.145,195.600 373.647 C 195.600 373.841,196.028 374.000,196.551 374.000 C 197.537 374.000,198.615 373.073,198.274 372.518 C 198.167 372.343,198.779 372.191,199.633 372.181 C 200.487 372.170,200.976 372.291,200.719 372.450 C 200.368 372.667,200.382 372.897,200.775 373.370 C 201.437 374.167,202.284 374.173,203.071 373.386 C 203.576 372.881,203.797 372.863,204.319 373.286 C 204.804 373.679,204.883 373.682,204.653 373.300 C 204.487 373.023,204.546 372.800,204.786 372.800 C 205.025 372.800,205.377 372.386,205.569 371.881 C 205.905 370.997,206.033 370.973,208.859 371.256 C 210.477 371.418,212.250 371.590,212.800 371.638 C 213.350 371.686,212.900 371.855,211.800 372.014 C 210.040 372.268,210.197 372.301,213.107 372.292 C 214.926 372.286,216.531 372.398,216.674 372.541 C 217.119 372.985,217.662 372.824,217.361 372.337 C 217.165 372.020,217.346 371.945,217.937 372.100 C 218.412 372.224,218.800 372.175,218.800 371.991 C 218.800 371.808,219.790 371.760,221.000 371.885 C 222.588 372.049,223.200 371.976,223.200 371.624 C 223.200 371.286,223.583 371.221,224.450 371.411 C 225.379 371.615,225.623 371.561,225.400 371.200 C 225.184 370.851,225.340 370.790,225.950 370.984 C 226.448 371.142,226.800 371.080,226.800 370.835 C 226.800 370.568,227.455 370.505,228.600 370.662 C 229.837 370.832,230.400 370.764,230.400 370.447 C 230.400 370.147,230.772 370.078,231.460 370.251 C 232.224 370.443,232.438 370.384,232.226 370.042 C 232.016 369.702,232.224 369.641,232.966 369.827 C 233.643 369.997,234.000 369.923,234.000 369.612 C 234.000 369.292,234.392 369.223,235.200 369.400 C 235.900 369.554,236.400 369.499,236.400 369.269 C 236.400 369.052,236.788 368.976,237.263 369.100 C 237.891 369.265,238.040 369.188,237.812 368.820 C 237.582 368.448,237.724 368.385,238.350 368.584 C 238.888 368.755,239.200 368.681,239.200 368.384 C 239.200 368.078,239.561 368.004,240.234 368.173 C 240.959 368.355,241.182 368.295,240.983 367.973 C 240.788 367.656,240.963 367.598,241.550 367.784 C 242.087 367.955,242.400 367.881,242.400 367.584 C 242.400 367.326,242.670 367.218,243.000 367.345 C 243.330 367.471,243.600 367.381,243.600 367.145 C 243.600 366.908,243.870 366.818,244.200 366.945 C 244.530 367.071,244.800 366.988,244.800 366.760 C 244.800 366.528,245.151 366.458,245.600 366.600 C 246.065 366.748,246.400 366.672,246.400 366.419 C 246.400 366.149,246.800 366.085,247.460 366.251 C 248.252 366.450,248.441 366.390,248.210 366.015 C 247.980 365.644,248.133 365.588,248.800 365.800 C 249.454 366.008,249.618 365.953,249.400 365.600 C 249.182 365.247,249.346 365.192,250.000 365.400 C 250.654 365.608,250.818 365.553,250.600 365.200 C 250.382 364.847,250.546 364.792,251.200 365.000 C 251.854 365.208,252.018 365.153,251.800 364.800 C 251.582 364.447,251.746 364.392,252.400 364.600 C 253.054 364.808,253.218 364.753,253.000 364.400 C 252.782 364.047,252.946 363.992,253.600 364.200 C 254.254 364.408,254.418 364.353,254.200 364.000 C 253.982 363.647,254.146 363.592,254.800 363.800 C 255.343 363.972,255.606 363.933,255.463 363.701 C 255.180 363.245,257.095 362.288,257.630 362.619 C 257.833 362.744,258.000 362.662,258.000 362.436 C 258.000 362.210,258.270 362.129,258.600 362.255 C 258.930 362.382,259.200 362.292,259.200 362.055 C 259.200 361.818,259.499 361.740,259.866 361.881 C 260.352 362.067,260.442 361.992,260.200 361.600 C 259.958 361.208,260.048 361.133,260.534 361.319 C 260.900 361.460,261.200 361.390,261.200 361.164 C 261.200 360.938,261.364 360.854,261.564 360.978 C 262.109 361.315,263.233 360.777,262.948 360.315 C 262.792 360.064,263.035 360.021,263.600 360.200 C 264.254 360.408,264.418 360.353,264.200 360.000 C 263.982 359.647,264.146 359.592,264.800 359.800 C 265.413 359.995,265.613 359.945,265.426 359.643 C 265.167 359.223,265.326 359.134,266.500 359.040 C 266.775 359.018,267.329 358.671,267.731 358.269 C 268.133 357.867,268.727 357.640,269.052 357.764 C 269.376 357.889,269.543 357.832,269.423 357.637 C 269.159 357.211,270.322 356.705,270.836 357.022 C 271.036 357.146,271.200 357.046,271.200 356.800 C 271.200 356.554,271.361 356.452,271.558 356.574 C 271.755 356.696,272.025 356.511,272.158 356.164 C 272.291 355.817,272.614 355.605,272.875 355.692 C 273.136 355.779,273.690 355.510,274.106 355.094 C 274.522 354.678,275.127 354.440,275.452 354.564 C 275.830 354.710,275.939 354.625,275.755 354.327 C 275.562 354.015,275.693 353.950,276.155 354.127 C 276.533 354.272,276.748 354.239,276.633 354.054 C 276.519 353.869,276.881 353.509,277.438 353.255 C 278.031 352.985,278.348 352.961,278.202 353.197 C 277.673 354.053,278.536 353.540,279.712 352.300 C 280.389 351.585,280.808 351.270,280.642 351.600 C 280.460 351.963,280.566 351.926,280.910 351.506 C 281.223 351.125,281.596 350.930,281.740 351.073 C 281.883 351.216,282.000 351.113,282.000 350.843 C 282.000 350.573,282.180 350.464,282.400 350.600 C 282.620 350.736,282.800 350.627,282.800 350.357 C 282.800 350.087,282.919 349.986,283.064 350.131 C 283.209 350.276,283.588 350.024,283.906 349.571 C 284.223 349.117,284.729 348.840,285.029 348.956 C 285.329 349.071,285.698 348.965,285.849 348.721 C 286.025 348.436,285.922 348.381,285.562 348.568 C 285.253 348.728,285.355 348.572,285.789 348.221 C 286.222 347.870,286.817 347.674,287.109 347.787 C 287.438 347.913,287.532 347.814,287.355 347.527 C 287.170 347.228,287.282 347.146,287.672 347.296 C 288.125 347.470,288.232 347.302,288.102 346.620 C 287.987 346.018,288.161 345.624,288.621 345.447 C 289.211 345.221,289.236 345.274,288.794 345.808 C 288.383 346.303,288.377 346.535,288.766 346.917 C 289.151 347.295,289.229 347.270,289.129 346.800 C 289.052 346.441,289.291 346.199,289.725 346.197 C 290.124 346.195,290.815 345.745,291.260 345.197 C 291.705 344.649,291.953 344.425,291.811 344.700 C 291.292 345.704,292.162 345.159,293.724 343.500 C 294.604 342.565,295.191 342.070,295.027 342.400 C 294.864 342.730,295.081 342.569,295.510 342.042 C 295.939 341.516,296.480 341.202,296.712 341.345 C 296.943 341.489,297.766 340.866,298.539 339.962 C 299.313 339.059,300.126 338.430,300.345 338.566 C 300.565 338.702,300.875 338.602,301.034 338.345 C 301.226 338.034,301.134 337.975,300.762 338.168 C 300.453 338.328,300.542 338.182,300.959 337.842 C 301.376 337.503,301.847 337.306,302.005 337.403 C 302.164 337.501,302.632 337.180,303.047 336.691 L 303.800 335.800 302.900 336.562 C 301.548 337.707,301.818 337.119,303.262 335.775 C 303.956 335.129,304.377 334.870,304.198 335.200 C 303.732 336.057,303.604 336.179,314.400 325.490 L 324.200 315.787 315.400 324.802 L 306.600 333.816 316.150 324.326 C 323.007 317.511,325.630 314.656,325.454 314.197 C 325.319 313.846,325.363 313.654,325.551 313.770 C 326.024 314.062,327.273 312.613,326.901 312.203 C 326.735 312.021,326.805 311.989,327.056 312.132 C 327.307 312.276,327.821 311.923,328.198 311.347 C 328.655 310.649,328.703 310.406,328.341 310.616 C 328.044 310.789,328.305 310.451,328.923 309.864 C 329.540 309.277,329.947 308.638,329.827 308.444 C 329.707 308.249,329.922 307.845,330.304 307.545 C 330.947 307.042,330.955 307.061,330.412 307.800 C 329.986 308.379,330.128 308.329,330.924 307.619 C 331.529 307.080,331.930 306.395,331.816 306.098 C 331.702 305.801,331.787 305.668,332.005 305.803 C 332.367 306.027,332.578 305.477,332.437 304.670 C 332.406 304.489,332.520 304.417,332.690 304.511 C 332.861 304.604,333.540 304.032,334.199 303.240 C 334.859 302.448,335.121 301.980,334.781 302.200 C 334.440 302.420,334.537 302.240,334.994 301.800 C 336.336 300.509,337.217 299.230,336.234 300.000 C 335.606 300.491,335.641 300.334,336.426 299.133 C 336.953 298.327,337.535 297.760,337.719 297.874 C 338.023 298.062,338.644 296.572,338.370 296.311 C 338.306 296.250,338.701 295.716,339.249 295.125 C 340.499 293.777,342.710 289.766,341.957 290.213 C 341.651 290.395,341.985 289.989,342.700 289.312 C 344.024 288.057,344.403 287.344,343.500 287.811 C 343.225 287.953,343.431 287.719,343.958 287.290 C 344.489 286.857,344.790 286.307,344.634 286.055 C 344.479 285.805,344.554 285.600,344.800 285.600 C 345.046 285.600,345.136 285.420,345.000 285.200 C 344.864 284.980,344.954 284.800,345.200 284.800 C 345.446 284.800,345.536 284.620,345.400 284.400 C 345.264 284.180,345.354 284.000,345.600 284.000 C 345.846 284.000,345.936 283.820,345.800 283.600 C 345.664 283.380,345.748 283.200,345.986 283.200 C 346.397 283.200,347.328 281.460,347.377 280.600 C 347.390 280.380,347.729 279.871,348.131 279.469 C 348.533 279.067,348.764 278.482,348.643 278.169 C 348.523 277.856,348.619 277.600,348.855 277.600 C 349.092 277.600,349.178 277.321,349.047 276.979 C 348.898 276.590,348.973 276.460,349.247 276.629 C 349.544 276.812,349.593 276.608,349.400 276.000 C 349.205 275.387,349.255 275.187,349.557 275.374 C 349.964 275.625,350.156 275.044,350.108 273.704 C 350.098 273.432,350.281 273.326,350.513 273.470 C 350.777 273.633,350.840 273.480,350.681 273.066 C 350.540 272.700,350.594 272.400,350.800 272.400 C 351.006 272.400,351.060 272.100,350.919 271.734 C 350.748 271.287,350.817 271.164,351.132 271.358 C 351.389 271.517,351.600 271.457,351.600 271.224 C 351.600 270.991,351.409 270.800,351.176 270.800 C 350.943 270.800,350.866 270.617,351.004 270.393 C 351.142 270.170,351.423 270.091,351.628 270.217 C 351.832 270.344,352.000 270.167,352.000 269.824 C 352.000 268.719,352.047 268.605,352.646 268.270 C 353.023 268.059,353.141 267.646,352.975 267.120 C 352.813 266.611,352.868 266.395,353.120 266.550 C 353.369 266.704,353.438 266.467,353.300 265.938 C 353.125 265.271,353.202 265.152,353.637 265.414 C 354.094 265.690,354.109 265.641,353.714 265.153 C 353.322 264.668,353.383 264.421,354.037 263.861 C 354.594 263.384,354.762 262.911,354.579 262.335 C 354.428 261.859,354.474 261.598,354.684 261.729 C 355.125 262.001,356.153 259.371,355.819 258.830 C 355.691 258.624,355.782 258.335,356.021 258.187 C 356.259 258.040,356.354 257.658,356.232 257.339 C 356.109 257.020,356.160 256.852,356.345 256.966 C 356.793 257.243,357.715 254.110,357.357 253.530 C 357.174 253.234,357.257 253.188,357.597 253.398 C 357.996 253.645,358.053 253.466,357.842 252.626 C 357.691 252.025,357.721 251.628,357.909 251.744 C 358.303 251.987,359.345 247.358,359.015 246.825 C 358.894 246.629,359.012 246.396,359.278 246.307 C 359.543 246.219,359.760 245.486,359.760 244.679 C 359.760 243.872,359.884 243.412,360.036 243.658 C 360.329 244.132,360.825 241.131,360.837 238.813 C 360.843 237.802,360.946 237.585,361.216 238.013 C 361.566 238.566,361.838 236.332,361.668 234.300 C 361.636 233.915,361.798 233.600,362.028 233.600 C 362.259 233.600,362.315 233.386,362.153 233.124 C 361.740 232.456,361.961 229.129,362.457 228.531 C 362.684 228.258,362.753 227.847,362.611 227.618 C 362.469 227.388,362.518 227.200,362.721 227.200 C 362.923 227.200,363.010 226.705,362.913 226.100 C 362.776 225.240,362.830 225.131,363.163 225.600 C 363.531 226.120,363.890 213.438,363.626 209.200 C 363.577 208.400,363.647 208.320,363.976 208.800 C 364.285 209.250,364.389 208.919,364.394 207.476 C 364.398 206.198,364.255 205.642,363.967 205.820 C 363.709 205.980,363.567 205.788,363.614 205.344 C 363.657 204.935,363.663 204.420,363.628 204.200 C 363.592 203.980,363.554 201.010,363.544 197.600 C 363.532 193.800,363.402 191.864,363.209 192.600 L 362.895 193.800 362.847 192.324 C 362.708 187.991,362.200 191.363,362.200 196.617 C 362.200 202.305,362.144 202.771,361.442 202.956 C 360.874 203.106,360.799 203.041,361.142 202.698 C 361.665 202.175,361.708 195.587,361.200 194.000 C 361.024 193.450,360.859 193.180,360.834 193.400 C 360.808 193.620,360.613 193.530,360.400 193.200 C 360.069 192.687,360.011 192.702,360.006 193.300 C 360.002 193.731,359.693 194.000,359.200 194.000 C 358.760 194.000,358.400 194.234,358.400 194.520 C 358.400 194.806,358.194 195.246,357.943 195.497 C 357.691 195.749,357.441 196.521,357.386 197.214 C 357.188 199.740,354.801 199.394,354.799 196.838 C 354.799 196.267,354.079 194.741,353.199 193.446 C 352.320 192.151,351.600 190.928,351.600 190.728 C 351.600 190.528,350.686 189.009,349.568 187.353 C 347.611 184.453,347.522 184.199,347.149 180.471 C 346.936 178.342,346.579 175.766,346.356 174.746 C 346.133 173.727,346.066 171.837,346.209 170.546 C 346.430 168.548,346.353 168.078,345.688 167.375 C 344.411 166.023,343.988 164.946,343.380 161.487 C 342.439 156.144,342.341 156.374,345.490 156.577 C 347.173 156.685,348.386 156.578,348.732 156.290 C 349.036 156.038,349.657 155.644,350.111 155.416 C 351.261 154.837,351.452 154.000,350.433 154.000 C 349.975 154.000,349.600 153.807,349.600 153.571 C 349.600 153.336,349.330 152.873,349.000 152.543 C 348.670 152.213,348.400 151.506,348.400 150.971 C 348.400 149.562,348.374 149.451,347.917 148.900 C 347.399 148.276,348.269 147.076,348.945 147.481 C 349.228 147.651,349.213 147.522,348.903 147.140 C 348.630 146.803,348.525 146.408,348.670 146.263 C 348.815 146.118,348.538 146.000,348.054 146.000 C 346.939 146.000,346.536 145.007,347.329 144.214 C 347.745 143.797,347.984 143.752,348.090 144.069 C 348.275 144.624,349.600 144.883,349.600 144.365 C 349.600 144.164,349.360 144.000,349.067 144.000 C 348.353 144.000,348.383 142.892,349.105 142.615 C 349.578 142.434,349.538 142.162,348.876 141.040 C 348.293 140.050,348.196 139.564,348.518 139.242 C 348.761 138.999,348.789 138.797,348.580 138.794 C 348.371 138.791,348.470 138.613,348.800 138.400 C 349.200 138.142,349.233 138.010,348.900 138.006 C 348.625 138.003,348.400 137.730,348.400 137.400 C 348.400 137.070,348.198 136.800,347.951 136.800 C 347.658 136.800,347.693 136.564,348.051 136.123 C 348.364 135.738,348.397 135.568,348.128 135.730 C 347.868 135.886,347.542 135.830,347.404 135.607 C 347.266 135.383,347.388 135.197,347.676 135.194 C 348.087 135.189,348.081 135.113,347.649 134.839 C 347.328 134.635,347.228 134.278,347.411 133.983 C 347.614 133.653,347.562 133.576,347.262 133.762 C 347.006 133.920,346.800 133.822,346.800 133.544 C 346.800 133.152,346.693 133.147,346.320 133.520 C 345.612 134.228,344.855 134.103,344.977 133.300 C 345.118 132.370,344.376 130.768,343.932 131.042 C 343.738 131.162,343.606 131.111,343.637 130.930 C 343.820 129.881,343.544 129.136,343.045 129.327 C 342.656 129.477,342.551 129.310,342.692 128.770 C 342.837 128.216,342.684 127.996,342.147 127.986 C 341.446 127.973,341.449 127.942,342.200 127.486 C 342.640 127.219,343.049 126.762,343.110 126.470 C 343.176 126.150,343.031 126.057,342.742 126.236 C 342.416 126.437,342.345 126.320,342.519 125.866 C 342.688 125.427,342.570 125.200,342.173 125.200 C 341.696 125.200,341.660 125.365,342.000 126.000 C 342.235 126.440,342.271 126.800,342.078 126.800 C 341.162 126.800,340.798 124.801,341.709 124.768 C 342.199 124.751,342.374 124.646,342.098 124.534 C 341.821 124.423,341.714 124.139,341.859 123.904 C 342.028 123.632,341.931 123.595,341.594 123.804 C 341.206 124.044,341.135 123.947,341.327 123.445 C 341.505 122.982,341.440 122.852,341.127 123.045 C 340.815 123.238,340.750 123.107,340.927 122.645 C 341.105 122.182,341.040 122.052,340.727 122.245 C 340.419 122.436,340.349 122.311,340.518 121.870 C 340.674 121.463,340.585 121.246,340.286 121.305 C 340.019 121.357,339.776 121.130,339.746 120.800 C 339.717 120.470,339.672 120.043,339.646 119.851 C 339.621 119.659,339.301 119.749,338.935 120.051 C 338.328 120.551,338.314 120.516,338.774 119.652 C 339.091 119.058,339.115 118.805,338.840 118.975 C 338.598 119.125,338.378 119.057,338.350 118.824 C 338.322 118.591,338.255 118.220,338.200 118.000 C 338.145 117.780,338.078 117.488,338.050 117.351 C 338.023 117.214,337.755 117.306,337.455 117.555 C 337.015 117.919,336.931 117.808,337.022 116.982 C 337.120 116.089,337.052 116.024,336.502 116.478 C 335.941 116.941,335.922 116.901,336.336 116.124 C 336.689 115.462,336.689 115.179,336.339 114.962 C 336.052 114.785,335.985 114.852,336.162 115.138 C 336.319 115.392,336.236 115.600,335.977 115.600 C 335.704 115.600,335.594 115.265,335.716 114.800 C 335.943 113.933,335.413 113.332,335.004 113.993 C 334.866 114.217,334.571 114.400,334.348 114.400 C 334.125 114.400,334.227 114.115,334.575 113.768 C 335.130 113.212,335.117 112.400,334.553 112.400 C 334.443 112.400,334.445 112.550,334.559 112.733 C 334.672 112.917,334.512 113.067,334.204 113.067 C 333.791 113.067,333.743 112.880,334.023 112.358 C 334.279 111.879,334.252 111.556,333.939 111.362 C 333.635 111.174,333.576 111.268,333.768 111.638 C 333.928 111.947,333.782 111.858,333.442 111.441 C 333.103 111.024,332.938 110.501,333.075 110.279 C 333.216 110.051,333.124 110.000,332.862 110.162 C 332.433 110.427,332.231 109.960,332.358 109.000 C 332.388 108.780,332.183 108.870,331.904 109.200 C 331.215 110.015,330.400 110.130,330.400 109.413 C 330.400 109.079,330.637 108.916,330.948 109.036 C 331.769 109.350,332.051 108.139,331.299 107.529 C 330.826 107.145,330.729 107.137,330.947 107.500 C 331.134 107.811,331.021 108.000,330.647 108.000 C 330.317 108.000,329.934 107.817,329.796 107.593 C 329.658 107.370,329.377 107.291,329.172 107.417 C 328.968 107.544,328.800 107.437,328.800 107.181 C 328.800 106.924,329.068 106.817,329.395 106.943 C 330.039 107.190,330.053 105.893,329.413 105.310 C 329.225 105.140,329.201 105.225,329.359 105.500 C 329.539 105.811,329.406 106.000,329.010 106.000 C 328.507 106.000,328.458 105.839,328.779 105.239 C 329.132 104.580,329.066 104.505,328.293 104.674 C 327.785 104.785,327.572 104.725,327.800 104.535 C 328.020 104.351,328.241 103.987,328.291 103.726 C 328.413 103.092,324.808 99.948,324.311 100.255 C 324.096 100.388,324.122 100.119,324.369 99.657 C 324.743 98.960,324.715 98.858,324.209 99.052 C 323.637 99.272,323.358 98.532,323.586 97.400 C 323.630 97.180,323.552 97.114,323.413 97.254 C 323.098 97.569,320.162 94.830,320.300 94.349 C 320.355 94.157,320.234 94.045,320.031 94.100 C 319.432 94.262,309.598 84.330,309.875 83.844 C 310.014 83.600,309.976 83.538,309.790 83.707 C 309.605 83.876,308.856 83.436,308.126 82.729 C 307.397 82.022,306.800 81.611,306.800 81.817 C 306.800 82.023,309.635 85.072,313.100 88.594 C 316.565 92.116,317.465 93.111,315.100 90.806 C 312.735 88.501,310.800 86.774,310.800 86.969 C 310.800 87.164,310.447 87.005,310.016 86.614 C 309.585 86.224,309.270 85.725,309.316 85.506 C 309.362 85.286,309.045 85.047,308.611 84.975 C 307.720 84.828,306.716 83.659,307.036 83.141 C 307.152 82.953,307.044 82.800,306.795 82.800 C 306.537 82.800,306.398 82.327,306.471 81.700 C 306.575 80.816,306.455 80.625,305.860 80.727 C 305.361 80.812,305.218 80.694,305.422 80.365 C 305.616 80.050,305.557 79.979,305.255 80.166 C 304.974 80.340,303.945 79.605,302.679 78.328 L 300.570 76.200 302.585 78.000 L 304.600 79.800 302.647 77.733 C 301.573 76.596,300.467 75.753,300.188 75.860 C 299.909 75.967,299.545 75.834,299.379 75.565 C 299.173 75.232,299.243 75.179,299.600 75.400 C 299.949 75.616,300.027 75.567,299.834 75.255 C 299.675 74.998,299.369 74.895,299.155 75.028 C 298.940 75.160,298.511 75.058,298.200 74.800 C 297.889 74.542,297.402 74.465,297.118 74.630 C 296.833 74.794,296.737 74.778,296.904 74.594 C 297.071 74.410,296.801 73.796,296.304 73.230 L 295.400 72.200 296.597 73.200 C 297.740 74.155,297.758 74.157,297.002 73.263 C 296.032 72.116,294.553 71.234,294.986 72.060 C 295.142 72.357,294.939 72.220,294.535 71.755 C 293.509 70.574,290.737 68.792,290.323 69.047 C 290.135 69.164,290.030 69.021,290.090 68.730 C 290.151 68.437,289.889 68.225,289.504 68.255 C 289.109 68.286,288.921 68.127,289.070 67.887 C 289.234 67.621,289.077 67.562,288.645 67.727 C 288.257 67.876,288.059 67.828,288.190 67.615 C 288.476 67.154,287.017 66.317,286.619 66.714 C 286.462 66.871,286.393 66.730,286.467 66.400 C 286.548 66.032,286.331 65.821,285.904 65.855 C 285.509 65.886,285.321 65.727,285.470 65.487 C 285.634 65.221,285.477 65.162,285.045 65.327 C 284.667 65.472,284.457 65.432,284.577 65.237 C 284.862 64.775,283.663 64.320,283.064 64.663 C 282.809 64.809,282.729 64.786,282.886 64.611 C 283.388 64.056,281.364 62.815,273.283 58.727 C 258.783 51.390,241.291 45.517,227.600 43.388 C 225.290 43.029,222.645 42.570,221.723 42.368 C 220.800 42.165,219.000 41.997,217.723 41.993 C 216.445 41.989,214.140 41.719,212.600 41.393 C 208.935 40.617,185.398 40.635,182.000 41.417 M211.400 49.416 C 222.773 50.668,223.875 51.005,227.673 54.390 C 236.476 62.236,232.825 65.879,216.312 65.728 C 207.601 65.648,206.517 65.406,205.875 63.400 C 205.663 62.740,205.436 62.136,205.369 62.057 C 205.303 61.979,203.988 62.496,202.447 63.206 C 200.409 64.146,199.285 64.441,198.323 64.289 C 197.174 64.108,196.808 64.286,195.546 65.640 C 193.752 67.565,192.784 67.601,191.148 65.803 C 189.880 64.410,189.870 64.407,187.214 64.653 C 180.487 65.279,177.660 62.968,179.809 58.600 C 180.350 57.500,180.794 56.394,180.796 56.141 C 180.803 55.292,183.570 53.242,185.091 52.959 C 185.921 52.805,187.410 52.331,188.400 51.905 C 189.390 51.479,192.540 50.705,195.400 50.185 C 198.260 49.666,201.116 49.090,201.746 48.906 C 203.040 48.528,203.602 48.558,211.400 49.416 M170.062 50.638 C 171.393 51.461,168.806 54.800,166.838 54.800 C 164.708 54.800,164.075 52.625,165.700 50.892 C 166.562 49.972,168.776 49.843,170.062 50.638 M165.200 66.400 C 165.200 67.239,164.890 67.363,163.823 66.953 C 163.325 66.762,163.283 66.582,163.639 66.153 C 164.314 65.340,165.200 65.480,165.200 66.400 M170.800 69.200 C 172.272 70.672,171.558 72.622,169.398 73.027 C 166.363 73.596,164.941 72.157,166.003 69.592 C 166.630 68.080,169.449 67.849,170.800 69.200 M200.435 91.178 C 210.861 93.881,210.489 93.301,207.769 102.623 C 204.985 112.163,204.824 112.939,204.379 118.951 C 203.887 125.590,203.890 125.595,208.130 126.626 C 209.708 127.010,211.973 127.656,213.163 128.062 C 218.679 129.945,218.834 129.679,223.559 110.200 C 226.693 97.278,225.911 97.905,235.777 100.402 C 246.146 103.027,246.211 103.097,244.405 109.696 C 243.968 111.293,242.447 117.415,241.026 123.300 C 237.729 136.951,237.488 136.047,245.265 139.152 C 272.204 149.909,282.430 164.023,278.403 184.890 C 275.800 198.376,270.438 207.195,262.400 211.209 C 259.834 212.490,259.816 212.722,262.088 215.186 C 263.211 216.404,264.736 218.065,265.477 218.877 C 267.767 221.388,269.270 221.286,269.776 218.586 C 270.265 215.981,272.677 217.878,273.803 221.753 C 274.396 223.791,274.471 223.867,276.370 224.354 C 278.596 224.924,279.182 225.470,280.288 228.000 C 281.938 231.779,283.902 234.349,285.301 234.560 C 288.796 235.089,289.532 235.230,291.244 235.702 C 293.306 236.269,294.400 237.018,294.400 237.862 C 294.400 238.173,295.030 238.799,295.800 239.253 C 297.419 240.208,297.483 240.531,296.404 242.300 C 295.491 243.798,294.448 243.958,293.369 242.766 C 289.645 238.651,286.800 238.373,286.800 242.125 C 286.800 245.976,282.784 245.440,279.870 241.200 C 276.980 236.994,276.892 237.054,276.570 243.455 C 276.295 248.947,275.187 254.041,273.568 257.256 C 272.944 258.497,271.697 261.736,270.798 264.454 C 265.929 279.177,252.091 289.265,235.200 290.405 C 232.230 290.605,228.990 290.969,228.000 291.212 C 227.010 291.456,225.660 291.552,225.000 291.426 C 224.340 291.299,220.470 291.013,216.400 290.790 C 212.330 290.567,207.470 290.231,205.600 290.043 C 200.866 289.569,200.553 289.821,199.165 295.230 C 198.576 297.524,197.415 301.380,196.583 303.800 C 195.488 306.988,195.021 309.091,194.889 311.435 C 194.734 314.179,194.487 315.087,193.253 317.427 C 191.002 321.701,191.120 321.677,181.937 319.682 C 171.549 317.424,171.131 317.069,171.858 311.111 C 172.461 306.167,171.715 304.400,169.024 304.400 C 167.427 304.400,164.573 303.193,163.245 301.956 C 161.303 300.146,159.621 302.083,157.615 308.441 C 155.908 313.848,156.395 313.830,139.033 309.150 C 135.197 308.116,134.633 306.152,136.050 298.764 C 136.862 294.533,136.376 288.867,135.031 286.880 C 132.981 283.850,134.339 280.400,137.583 280.400 C 139.350 280.400,139.408 279.723,137.714 278.873 C 136.881 278.456,135.361 277.632,134.335 277.042 C 130.432 274.800,127.275 275.226,126.015 278.165 C 125.612 279.105,124.642 280.402,123.858 281.048 C 123.075 281.694,122.166 282.861,121.840 283.643 C 121.513 284.424,120.966 285.296,120.623 285.581 C 119.954 286.136,119.758 288.000,120.369 288.000 C 121.449 288.000,123.152 290.134,123.616 292.067 C 124.229 294.621,123.680 295.197,120.624 295.206 C 117.919 295.214,117.425 295.570,117.777 297.256 C 118.644 301.414,118.556 302.235,117.135 303.239 C 116.401 303.758,115.401 304.577,114.914 305.059 C 113.762 306.199,109.845 307.335,108.158 307.019 C 106.517 306.711,97.362 300.594,94.273 297.742 C 91.170 294.876,89.919 294.261,87.825 294.575 C 85.934 294.859,84.634 294.099,80.232 290.133 C 77.924 288.055,77.802 288.000,75.458 288.000 C 72.164 288.000,70.329 286.979,67.400 283.514 C 66.080 281.953,63.903 279.488,62.563 278.038 C 60.142 275.416,57.600 271.971,57.600 271.310 C 57.600 271.120,56.872 270.275,55.982 269.432 C 54.106 267.654,52.801 265.310,52.799 263.716 C 52.797 262.285,51.460 260.087,50.300 259.608 C 48.794 258.986,47.303 257.098,46.820 255.200 C 46.568 254.210,46.025 252.500,45.614 251.400 C 45.202 250.300,44.747 248.862,44.601 248.204 C 44.456 247.546,44.140 246.887,43.900 246.738 C 43.660 246.590,43.422 246.048,43.370 245.534 C 43.318 245.020,43.065 243.430,42.807 242.000 C 42.549 240.570,42.196 237.870,42.022 236.000 C 41.849 234.130,41.573 232.284,41.410 231.898 C 41.246 231.512,41.073 230.162,41.025 228.898 C 40.906 225.794,39.718 216.270,39.145 213.819 C 38.815 212.408,38.778 209.763,39.015 204.619 C 39.199 200.649,39.362 195.330,39.378 192.800 C 39.395 190.073,39.609 187.742,39.903 187.074 C 40.177 186.455,40.400 184.868,40.400 183.548 C 40.400 182.228,40.560 180.844,40.755 180.474 C 40.951 180.103,41.193 179.080,41.293 178.200 C 41.394 177.320,41.842 175.880,42.289 175.000 C 42.737 174.120,43.237 172.778,43.401 172.019 C 44.377 167.502,49.234 154.267,50.405 152.933 C 51.096 152.146,51.862 151.029,52.106 150.451 C 52.648 149.166,54.789 146.800,55.409 146.800 C 56.272 146.800,57.550 144.978,59.413 141.088 C 60.882 138.021,61.559 137.038,62.544 136.541 C 65.499 135.048,66.472 133.112,64.619 132.407 C 61.021 131.039,62.611 127.376,67.292 126.251 C 68.720 125.908,70.521 124.118,71.625 121.943 C 72.959 119.315,73.630 118.601,77.470 115.720 C 80.392 113.528,88.639 109.106,92.100 107.874 C 93.317 107.441,93.025 110.924,91.590 113.956 C 90.925 115.361,90.205 117.757,89.989 119.279 C 89.556 122.328,88.850 124.004,87.254 125.762 C 86.674 126.401,86.470 126.769,86.800 126.580 C 87.130 126.390,86.876 126.858,86.236 127.618 C 85.595 128.378,84.908 128.951,84.710 128.891 C 84.511 128.832,84.405 129.372,84.474 130.091 C 84.588 131.274,84.737 131.412,86.023 131.520 C 87.731 131.663,89.754 130.974,89.384 130.374 C 89.239 130.139,89.363 129.995,89.660 130.053 C 90.982 130.314,95.600 126.877,95.600 125.631 C 95.600 125.032,101.221 119.793,102.387 119.305 C 106.679 117.509,122.495 118.829,126.000 121.275 C 129.573 123.769,135.283 123.578,136.320 120.931 C 136.564 120.309,137.323 118.319,138.007 116.509 C 140.472 109.988,139.821 109.971,165.686 117.210 C 169.316 118.226,174.746 119.492,178.815 120.271 C 180.716 120.635,181.346 119.491,183.925 111.000 C 186.307 103.159,187.244 99.388,187.798 95.415 C 188.745 88.619,189.538 88.353,200.435 91.178 M327.025 102.500 L 328.200 103.800 326.900 102.625 C 326.185 101.979,325.600 101.394,325.600 101.325 C 325.600 101.016,325.930 101.288,327.025 102.500 M340.727 123.400 C 341.004 124.008,341.030 124.400,340.791 124.400 C 340.576 124.400,340.400 124.209,340.400 123.976 C 340.400 123.743,340.231 123.657,340.024 123.785 C 339.818 123.913,339.676 123.653,339.709 123.209 C 339.791 122.118,340.176 122.190,340.727 123.400 M343.420 127.567 C 343.139 128.022,344.810 131.600,345.303 131.600 C 345.492 131.600,345.558 131.744,345.450 131.919 C 345.008 132.635,345.855 133.256,346.392 132.610 C 346.828 132.084,346.817 132.019,346.323 132.208 C 345.752 132.427,345.689 132.288,345.505 130.429 C 345.463 130.006,345.257 129.765,345.046 129.895 C 344.830 130.029,344.773 129.847,344.915 129.478 C 345.052 129.119,344.965 128.702,344.721 128.551 C 344.452 128.385,344.389 128.459,344.562 128.738 C 344.719 128.992,344.636 129.200,344.377 129.200 C 344.104 129.200,343.994 128.865,344.116 128.400 C 344.338 127.551,343.816 126.927,343.420 127.567 M346.722 135.244 C 346.508 135.379,346.644 135.608,347.024 135.754 C 347.404 135.900,347.614 136.119,347.492 136.242 C 347.098 136.635,345.566 135.578,345.854 135.112 C 346.040 134.812,345.879 134.753,345.366 134.933 C 344.624 135.194,344.623 135.184,345.343 134.625 C 345.920 134.178,346.201 134.155,346.599 134.524 C 346.911 134.814,346.959 135.096,346.722 135.244 M347.927 138.131 C 347.998 138.731,347.856 139.200,347.603 139.200 C 347.355 139.200,347.256 139.032,347.383 138.828 C 347.509 138.623,347.430 138.342,347.207 138.204 C 346.622 137.843,346.704 136.702,347.300 136.898 C 347.575 136.988,347.857 137.543,347.927 138.131 M348.800 139.400 C 348.526 139.730,348.477 140.000,348.690 140.000 C 348.903 140.000,349.274 140.405,349.514 140.900 C 349.938 141.775,349.948 141.769,349.888 140.700 C 349.853 140.095,349.674 139.600,349.489 139.600 C 349.304 139.600,349.264 139.420,349.400 139.200 C 349.780 138.586,349.360 138.726,348.800 139.400 M349.427 145.874 C 349.288 146.237,349.386 146.729,349.646 146.967 C 349.998 147.290,350.055 147.222,349.871 146.700 C 349.736 146.315,349.784 146.000,349.979 146.000 C 350.174 146.000,350.405 146.216,350.493 146.480 C 350.613 146.838,350.726 146.843,350.938 146.500 C 351.099 146.240,350.887 145.861,350.451 145.627 C 349.849 145.305,349.624 145.359,349.427 145.874 M351.547 146.200 C 351.835 147.315,353.200 148.174,353.200 147.242 C 353.200 147.013,352.900 146.940,352.534 147.081 C 352.131 147.235,351.968 147.175,352.122 146.927 C 352.261 146.702,352.118 146.176,351.805 145.759 C 351.283 145.064,351.262 145.100,351.547 146.200 M352.639 148.463 C 352.835 148.780,352.653 148.855,352.062 148.700 C 351.587 148.576,351.300 148.638,351.423 148.837 C 351.546 149.037,351.917 149.200,352.247 149.200 C 352.599 149.200,352.729 149.391,352.562 149.662 C 352.385 149.948,352.452 150.015,352.738 149.838 C 353.147 149.585,353.402 150.318,353.247 151.300 C 353.180 151.728,353.908 151.672,354.183 151.228 C 354.309 151.023,354.218 150.735,353.979 150.587 C 353.741 150.440,353.646 150.058,353.768 149.739 C 353.909 149.371,353.823 149.262,353.532 149.442 C 353.221 149.634,353.146 149.449,353.300 148.863 C 353.455 148.269,353.342 148.000,352.939 148.000 C 352.597 148.000,352.472 148.193,352.639 148.463 M351.042 152.332 C 350.735 152.829,352.785 154.169,353.743 154.098 C 354.173 154.066,354.572 154.372,354.690 154.822 C 354.900 155.627,356.000 155.925,356.000 155.176 C 356.000 154.943,355.789 154.883,355.532 155.042 C 355.217 155.236,355.148 155.113,355.319 154.666 C 355.460 154.300,355.406 154.000,355.200 154.000 C 354.994 154.000,354.923 153.744,355.044 153.431 C 355.329 152.686,354.081 152.850,353.536 153.628 C 353.249 154.038,353.209 153.859,353.394 153.000 C 353.642 151.851,353.626 151.834,353.026 152.600 C 352.425 153.368,352.378 153.371,351.838 152.676 C 351.530 152.278,351.171 152.123,351.042 152.332 M199.288 155.519 C 199.058 156.181,198.966 157.797,199.085 159.111 C 199.296 161.428,199.264 161.529,198.052 162.425 C 195.220 164.518,193.085 169.394,193.975 171.734 C 194.300 172.589,194.040 173.141,192.032 175.860 C 187.991 181.333,187.513 187.205,190.858 190.284 C 191.988 191.325,197.657 192.793,200.561 192.797 C 201.850 192.799,203.291 193.164,204.761 193.861 C 206.080 194.486,208.151 195.047,209.800 195.225 C 211.340 195.392,213.563 195.723,214.741 195.961 C 217.710 196.562,220.545 195.832,223.755 193.639 C 224.660 193.021,226.120 192.386,227.000 192.228 C 230.335 191.629,232.921 189.374,236.668 183.800 C 242.947 174.460,238.042 164.996,224.200 159.742 C 222.660 159.158,220.470 158.088,219.333 157.365 C 216.253 155.408,214.519 154.994,211.716 155.545 C 209.787 155.925,209.011 155.895,207.194 155.370 C 205.987 155.021,203.809 154.642,202.354 154.526 L 199.708 154.316 199.288 155.519 M355.506 157.018 C 355.730 158.191,356.229 158.601,356.634 157.945 C 356.815 157.652,356.750 157.584,356.462 157.762 C 356.172 157.941,356.000 157.750,356.000 157.247 C 356.000 156.807,355.846 156.352,355.658 156.236 C 355.470 156.119,355.401 156.471,355.506 157.018 M356.446 159.500 C 356.421 159.995,356.541 160.400,356.714 160.400 C 356.887 160.400,357.029 160.760,357.029 161.200 C 357.029 161.640,356.865 162.000,356.665 162.000 C 356.466 162.000,356.541 162.287,356.832 162.639 C 357.314 163.219,357.389 163.210,357.653 162.539 C 358.082 161.448,358.054 161.119,357.557 161.426 C 357.259 161.611,357.203 161.422,357.384 160.850 C 357.536 160.372,357.480 160.000,357.256 160.000 C 357.038 160.000,356.776 159.685,356.676 159.300 C 356.538 158.773,356.481 158.823,356.446 159.500 M357.599 163.333 C 357.175 163.663,357.013 164.501,357.044 166.200 C 357.109 169.704,357.143 169.909,357.557 169.256 C 357.747 168.956,357.821 168.326,357.721 167.856 C 357.549 167.039,357.568 167.033,358.139 167.734 C 358.681 168.399,358.721 168.211,358.558 165.756 C 358.350 162.632,358.385 162.720,357.599 163.333 M351.800 164.799 C 351.665 165.019,351.834 165.599,352.177 166.088 C 352.845 167.042,353.006 167.775,352.477 167.447 C 352.299 167.338,352.112 167.957,352.061 168.824 C 352.002 169.808,352.142 170.400,352.433 170.400 C 352.765 170.400,352.751 170.577,352.383 171.020 C 351.948 171.544,352.003 171.676,352.734 171.867 C 353.210 171.991,353.614 172.387,353.632 172.747 C 353.652 173.161,353.737 173.217,353.865 172.900 C 353.976 172.625,354.297 172.400,354.578 172.400 C 354.907 172.400,355.021 172.045,354.898 171.400 C 354.793 170.850,354.887 170.400,355.107 170.400 C 355.327 170.400,355.609 169.995,355.733 169.500 C 355.947 168.654,355.927 168.644,355.407 169.340 C 354.749 170.220,353.849 169.822,354.123 168.773 C 354.229 168.369,354.070 167.714,353.770 167.319 C 353.471 166.923,353.220 166.105,353.213 165.500 C 353.200 164.406,352.315 163.967,351.800 164.799 M359.813 173.600 C 360.014 173.930,360.201 174.380,360.229 174.600 C 360.256 174.820,360.306 175.225,360.339 175.500 C 360.428 176.226,361.200 176.115,361.200 175.376 C 361.200 175.002,361.013 174.868,360.732 175.042 C 360.422 175.234,360.346 175.117,360.508 174.695 C 360.646 174.337,360.467 173.827,360.099 173.529 C 359.543 173.078,359.501 173.089,359.813 173.600 M355.206 175.667 C 355.209 176.180,355.387 176.870,355.600 177.200 C 355.902 177.668,355.989 177.557,355.994 176.700 C 355.997 176.095,356.014 175.470,356.030 175.310 C 356.047 175.151,355.867 174.956,355.630 174.877 C 355.394 174.798,355.203 175.153,355.206 175.667 M360.588 177.434 C 360.634 178.113,360.757 178.833,360.862 179.034 C 360.966 179.235,361.040 179.968,361.026 180.662 C 361.012 181.356,361.116 181.852,361.258 181.764 C 361.399 181.677,361.489 182.639,361.458 183.902 C 361.420 185.412,361.229 186.217,360.900 186.250 C 359.739 186.366,359.600 186.414,359.600 186.700 C 359.600 186.865,360.213 187.000,360.962 187.000 C 361.711 187.000,362.235 186.857,362.127 186.682 C 361.955 186.403,361.861 184.693,361.639 177.800 C 361.605 176.733,361.473 176.382,361.242 176.745 C 360.951 177.206,360.866 177.206,360.700 176.745 C 360.592 176.445,360.542 176.755,360.588 177.434 M359.380 178.166 C 359.408 180.107,359.819 180.280,359.895 178.382 C 359.929 177.512,359.823 176.800,359.659 176.800 C 359.495 176.800,359.370 177.415,359.380 178.166 M358.100 178.223 C 357.511 178.863,357.462 179.200,357.957 179.200 C 358.298 179.200,358.937 177.996,358.709 177.783 C 358.649 177.727,358.375 177.925,358.100 178.223 M356.400 179.600 C 355.915 179.914,355.972 179.989,356.700 179.994 C 357.195 179.997,357.600 179.820,357.600 179.600 C 357.600 179.099,357.176 179.099,356.400 179.600 M356.000 181.300 C 356.000 181.735,356.216 181.995,356.500 181.900 C 357.238 181.654,357.334 180.533,356.616 180.533 C 356.276 180.533,356.000 180.876,356.000 181.300 M357.067 186.267 C 356.489 186.844,356.817 188.000,357.557 188.000 C 358.251 188.000,358.800 187.279,358.800 186.367 C 358.800 185.945,357.466 185.868,357.067 186.267 M363.192 204.100 C 363.410 208.377,363.361 208.794,362.579 209.399 C 361.989 209.856,361.962 209.946,362.469 209.770 C 363.173 209.526,363.278 210.484,362.614 211.088 C 362.426 211.260,362.390 211.194,362.534 210.942 C 362.678 210.690,362.526 210.381,362.198 210.254 C 361.425 209.958,361.426 208.952,362.200 208.655 C 362.530 208.529,362.800 208.203,362.800 207.933 C 362.800 207.549,362.693 207.547,362.320 207.920 C 361.614 208.626,361.078 208.504,361.358 207.700 C 361.571 207.090,361.527 207.096,361.020 207.750 C 360.686 208.182,360.175 208.399,359.819 208.263 C 359.050 207.967,359.003 206.450,359.755 206.162 C 360.060 206.045,360.418 205.408,360.550 204.748 C 360.683 204.087,360.957 203.650,361.161 203.776 C 361.365 203.902,361.624 203.819,361.736 203.592 C 361.848 203.366,361.888 203.410,361.824 203.690 C 361.760 203.971,361.893 204.560,362.120 205.000 C 362.485 205.711,362.458 205.740,361.876 205.260 C 361.272 204.761,361.269 204.816,361.840 205.960 C 362.646 207.575,362.732 207.530,362.728 205.500 C 362.722 201.999,363.037 201.048,363.192 204.100 M279.584 207.054 C 280.193 207.414,281.008 208.244,281.394 208.898 C 281.784 209.558,282.847 210.420,283.780 210.832 C 287.664 212.550,288.585 214.580,286.804 217.500 C 284.865 220.681,281.356 218.759,278.282 212.833 C 275.868 208.179,275.880 206.876,278.338 206.425 C 278.414 206.411,278.975 206.694,279.584 207.054 M182.342 213.454 C 181.980 213.864,181.407 215.550,181.070 217.200 C 180.732 218.850,180.051 222.180,179.556 224.600 C 177.617 234.089,178.099 236.148,183.162 240.000 C 186.558 242.584,188.261 244.935,188.615 247.531 C 188.756 248.559,189.034 250.030,189.233 250.800 C 189.432 251.570,189.597 252.971,189.598 253.914 C 189.603 257.809,197.223 261.064,199.609 258.189 C 200.347 257.300,201.401 257.480,201.999 258.597 C 203.177 260.800,205.146 261.350,209.126 260.588 C 212.591 259.926,212.878 259.762,211.497 259.237 C 210.309 258.785,209.967 258.075,210.468 257.100 C 211.107 255.859,213.864 256.654,214.079 258.141 C 214.329 259.863,218.865 260.008,220.959 258.360 C 223.335 256.492,221.548 254.150,218.007 254.490 C 216.353 254.649,215.905 254.542,215.287 253.840 C 212.536 250.715,212.576 248.250,215.343 250.427 C 216.554 251.379,217.903 251.492,220.285 250.839 C 222.405 250.258,223.792 250.575,225.718 252.081 C 227.582 253.537,228.093 253.245,229.064 250.163 C 229.635 248.352,229.660 247.859,229.221 247.039 C 228.354 245.418,223.656 241.605,222.467 241.556 C 220.559 241.477,219.421 241.672,218.240 242.283 C 217.479 242.676,216.555 242.799,215.556 242.639 C 213.496 242.310,209.526 245.999,210.576 247.266 C 212.461 249.539,210.151 251.191,207.064 249.778 C 205.822 249.209,204.490 248.832,204.103 248.940 C 203.716 249.048,202.999 249.252,202.509 249.392 C 201.795 249.597,201.457 249.385,200.810 248.324 C 199.714 246.526,199.767 246.237,201.550 244.291 C 204.401 241.180,205.789 237.810,205.033 235.832 C 203.873 232.794,204.434 231.230,207.196 229.802 C 211.459 227.597,206.742 218.099,201.841 219.019 C 200.705 219.232,200.272 219.047,198.685 217.673 C 195.143 214.608,183.886 211.702,182.342 213.454 M299.389 217.434 C 300.208 219.160,300.001 220.186,298.432 222.159 C 297.780 222.980,296.935 224.495,296.554 225.526 C 295.324 228.858,294.053 229.314,291.926 227.187 C 290.683 225.945,290.669 225.750,291.641 223.333 C 292.057 222.299,292.052 221.770,291.615 220.446 C 290.897 218.271,291.474 217.536,293.807 217.657 C 295.026 217.720,295.797 217.503,296.599 216.872 C 298.122 215.674,298.600 215.770,299.389 217.434 M362.372 221.476 C 362.387 221.958,362.220 222.464,362.000 222.600 C 361.753 222.753,361.611 222.110,361.628 220.924 C 361.657 218.978,362.307 219.462,362.372 221.476 M217.355 225.773 C 216.831 227.139,221.031 230.729,222.010 229.750 C 222.308 229.452,221.860 228.716,220.496 227.263 C 218.503 225.140,217.737 224.777,217.355 225.773 M223.200 234.200 C 223.200 237.157,225.070 238.102,228.700 236.980 C 230.007 236.576,228.267 233.600,226.723 233.600 C 226.379 233.600,225.874 233.330,225.600 233.000 C 224.458 231.624,223.200 232.252,223.200 234.200 M120.700 270.676 C 120.315 270.776,120.000 271.079,120.000 271.349 C 120.000 272.644,122.215 273.349,122.657 272.195 C 122.882 271.609,122.159 270.352,121.651 270.446 C 121.513 270.472,121.085 270.575,120.700 270.676 M112.441 272.514 C 109.327 274.009,109.703 278.018,113.022 278.708 C 114.568 279.029,114.581 279.047,114.459 280.737 C 114.222 284.024,116.523 285.477,118.946 283.571 C 120.671 282.214,119.857 280.735,116.646 279.394 L 115.104 278.749 115.366 276.770 C 115.511 275.681,115.726 274.536,115.845 274.226 C 116.384 272.823,114.144 271.697,112.441 272.514 M165.225 282.170 C 164.972 282.474,164.875 283.161,165.009 283.695 C 165.249 284.648,164.207 288.393,162.934 291.157 C 160.598 296.228,169.320 304.503,172.811 300.527 C 176.843 295.935,175.712 290.035,170.121 286.487 C 169.091 285.834,168.173 284.828,167.749 283.887 C 166.926 282.062,165.896 281.361,165.225 282.170 M89.600 332.600 C 90.795 333.810,91.683 334.800,91.573 334.800 C 91.463 334.800,90.395 333.810,89.200 332.600 C 88.005 331.390,87.117 330.400,87.227 330.400 C 87.337 330.400,88.405 331.390,89.600 332.600 M157.336 366.900 C 157.489 367.276,157.644 367.252,157.963 366.800 C 158.355 366.246,158.583 366.515,158.431 367.350 C 158.396 367.542,158.829 367.611,159.393 367.503 C 159.957 367.396,160.505 367.446,160.610 367.616 C 160.715 367.786,161.116 367.878,161.500 367.820 C 161.885 367.762,161.975 367.792,161.700 367.887 C 161.425 367.981,161.200 368.232,161.200 368.443 C 161.200 368.675,160.882 368.658,160.400 368.400 C 159.960 368.165,159.600 368.056,159.600 368.158 C 159.600 368.260,159.015 368.165,158.300 367.946 C 157.127 367.587,156.149 367.325,155.600 367.224 C 155.339 367.177,156.519 366.414,156.867 366.406 C 157.013 366.403,157.225 366.625,157.336 366.900 M214.617 366.884 C 214.897 367.164,214.310 368.800,213.930 368.800 C 213.722 368.800,213.652 368.639,213.774 368.442 C 214.009 368.062,213.121 367.600,212.154 367.600 C 211.835 367.600,211.425 368.002,211.244 368.493 L 210.913 369.387 210.624 368.474 C 210.098 366.817,213.282 365.549,214.617 366.884 M167.053 369.300 C 166.888 369.025,166.943 368.800,167.176 368.800 C 167.409 368.800,167.600 369.083,167.600 369.429 C 167.600 370.219,166.342 370.030,166.068 369.200 C 165.892 368.667,165.952 368.667,166.612 369.200 C 167.039 369.546,167.226 369.588,167.053 369.300 M213.912 369.914 C 213.474 370.449,213.517 370.509,214.212 370.330 C 214.986 370.131,216.000 370.793,216.000 371.498 C 216.000 371.680,215.595 371.850,215.100 371.874 C 214.605 371.899,214.425 371.832,214.700 371.726 C 215.644 371.362,215.216 370.709,214.200 370.964 C 213.462 371.149,213.200 371.056,213.200 370.608 C 213.200 370.158,212.707 369.984,211.300 369.940 C 210.126 369.903,209.821 369.816,210.500 369.713 C 211.105 369.622,211.600 369.415,211.600 369.254 C 211.600 369.093,212.235 369.035,213.012 369.125 C 214.235 369.268,214.355 369.373,213.912 369.914 M204.764 372.244 C 204.383 372.703,204.182 372.747,204.066 372.399 C 203.968 372.104,203.803 372.065,203.652 372.301 C 203.152 373.078,201.600 373.304,201.600 372.600 C 201.600 372.128,201.823 372.017,202.400 372.200 C 202.859 372.346,203.200 372.272,203.200 372.027 C 203.200 371.792,203.672 371.600,204.249 371.600 C 205.168 371.600,205.232 371.680,204.764 372.244 M206.300 372.276 C 205.915 372.376,205.600 372.625,205.600 372.829 C 205.600 373.353,206.074 373.270,206.976 372.587 C 207.754 371.999,207.610 371.933,206.300 372.276 " stroke="none" fill="#885734" fill-rule="evenodd"></path><path id="path1" d="M202.200 50.952 C 200.880 51.240,198.091 51.705,196.003 51.985 C 191.641 52.569,190.789 52.839,188.634 54.322 C 187.574 55.052,186.550 55.400,185.468 55.400 C 183.564 55.400,183.071 56.219,184.620 56.808 C 185.635 57.193,185.690 57.337,185.463 58.993 C 185.193 60.965,185.568 61.460,186.823 60.788 C 187.449 60.453,188.363 60.464,190.421 60.831 C 192.836 61.263,193.508 61.235,195.825 60.608 C 198.441 59.900,198.487 59.901,199.975 60.738 L 201.479 61.583 204.240 60.193 C 208.441 58.077,211.273 58.393,209.900 60.825 C 208.282 63.692,209.291 64.200,216.600 64.200 L 222.200 64.200 225.493 62.600 C 229.772 60.520,229.856 59.774,226.288 55.481 C 223.950 52.667,222.114 51.856,218.645 52.104 C 216.511 52.257,215.319 52.120,213.623 51.529 C 210.783 50.538,205.346 50.264,202.200 50.952 M190.852 91.148 C 190.430 91.570,189.805 93.272,189.420 95.048 C 189.044 96.782,188.403 99.370,187.995 100.800 C 187.588 102.230,186.339 107.090,185.221 111.600 C 182.963 120.705,182.252 122.000,179.515 122.000 C 178.029 122.000,161.364 117.916,152.419 115.359 C 145.119 113.273,142.783 113.040,141.549 114.273 C 140.125 115.697,136.786 129.895,137.348 132.135 C 137.649 133.335,137.474 133.269,144.909 135.000 C 161.527 138.869,162.742 143.036,155.000 169.600 C 154.455 171.470,153.553 175.070,152.996 177.600 C 152.440 180.130,151.168 185.350,150.171 189.200 C 149.174 193.050,147.649 199.170,146.783 202.800 C 144.960 210.439,142.681 219.269,140.691 226.400 C 139.923 229.150,138.839 233.330,138.282 235.689 C 136.321 243.984,132.472 246.441,124.943 244.205 C 114.131 240.995,112.884 241.408,109.863 249.202 C 108.882 251.731,107.342 255.320,106.440 257.179 C 103.441 263.358,103.821 263.866,113.062 266.043 C 127.534 269.452,140.613 272.858,141.923 273.559 C 143.900 274.617,144.057 276.608,142.572 281.803 C 140.489 289.087,139.672 292.334,138.444 298.200 C 136.445 307.753,136.088 307.201,145.787 309.563 C 154.855 311.771,154.825 311.782,156.376 305.600 C 156.846 303.730,157.750 300.580,158.387 298.600 C 159.024 296.620,159.657 294.370,159.795 293.600 C 160.665 288.741,162.652 281.388,163.327 280.529 C 164.303 279.289,165.307 279.360,172.400 281.173 C 180.884 283.341,180.679 282.843,177.862 294.400 C 177.513 295.830,176.678 299.430,176.006 302.400 C 175.334 305.370,174.408 309.261,173.949 311.047 C 172.658 316.070,172.882 316.290,181.459 318.427 C 191.509 320.932,191.516 320.928,193.401 311.600 C 193.779 309.730,194.700 306.246,195.447 303.857 C 196.195 301.468,197.265 297.523,197.826 295.089 C 199.503 287.807,199.626 287.710,206.048 288.622 C 208.552 288.978,213.120 289.425,216.200 289.617 C 219.280 289.808,222.769 290.088,223.954 290.238 C 225.139 290.389,227.569 290.317,229.354 290.077 C 231.139 289.838,234.683 289.466,237.230 289.249 C 252.671 287.937,263.927 278.572,270.222 261.800 C 277.851 241.475,274.073 227.078,258.236 216.114 C 253.403 212.768,253.487 211.777,258.800 209.470 C 266.929 205.942,272.397 200.181,275.191 192.200 C 283.782 167.659,273.611 150.657,243.494 139.213 C 236.697 136.631,236.785 137.288,240.979 120.392 C 245.536 102.030,246.038 103.830,235.631 101.220 C 226.531 98.937,227.161 98.472,224.559 109.400 C 219.062 132.487,219.765 131.629,208.806 128.630 C 203.538 127.188,202.000 126.204,202.000 124.278 C 202.000 122.792,204.376 111.626,205.591 107.400 C 206.224 105.200,207.151 101.641,207.651 99.492 L 208.561 95.584 207.734 94.756 C 207.167 94.189,204.739 93.376,199.996 92.165 C 192.132 90.157,191.872 90.128,190.852 91.148 M204.125 151.197 C 206.471 151.856,210.147 152.775,212.295 153.239 C 237.546 158.702,248.297 177.292,234.066 190.888 C 229.678 195.081,221.949 197.646,215.600 197.018 C 207.504 196.217,205.915 196.015,203.000 195.418 C 184.652 191.661,184.696 191.720,189.068 177.000 C 189.591 175.240,190.444 171.910,190.965 169.600 C 195.607 149.007,195.727 148.839,204.125 151.197 M190.800 212.131 C 192.670 212.670,196.360 213.682,199.000 214.382 C 212.682 218.006,225.113 224.460,229.378 230.154 C 236.311 239.408,234.565 252.400,225.594 258.309 C 220.033 261.971,210.479 263.846,203.419 262.659 C 201.209 262.287,198.468 261.987,197.329 261.992 C 195.269 262.000,190.053 260.923,178.600 258.124 C 169.266 255.843,169.378 256.096,172.382 244.109 C 173.471 239.759,174.738 234.580,175.197 232.600 C 175.655 230.620,176.552 227.290,177.190 225.200 C 177.828 223.110,178.546 220.290,178.786 218.934 C 180.320 210.271,181.675 209.503,190.800 212.131 " stroke="none" fill="#fbfbfb" fill-rule="evenodd"></path><path id="path2" d="M201.746 48.906 C 201.116 49.090,198.260 49.666,195.400 50.185 C 192.540 50.705,189.390 51.479,188.400 51.905 C 187.410 52.331,185.921 52.805,185.091 52.959 C 183.570 53.242,180.803 55.292,180.796 56.141 C 180.794 56.394,180.350 57.500,179.809 58.600 C 177.660 62.968,180.487 65.279,187.214 64.653 C 189.870 64.407,189.880 64.410,191.148 65.803 C 192.784 67.601,193.752 67.565,195.546 65.640 C 196.808 64.286,197.174 64.108,198.323 64.289 C 199.285 64.441,200.409 64.146,202.447 63.206 C 203.988 62.496,205.303 61.979,205.369 62.057 C 205.436 62.136,205.663 62.740,205.875 63.400 C 206.517 65.406,207.601 65.648,216.312 65.728 C 232.825 65.879,236.476 62.236,227.673 54.390 C 223.875 51.005,222.773 50.668,211.400 49.416 C 203.602 48.558,203.040 48.528,201.746 48.906 M165.700 50.892 C 164.075 52.625,164.708 54.800,166.838 54.800 C 168.806 54.800,171.393 51.461,170.062 50.638 C 168.776 49.843,166.562 49.972,165.700 50.892 M213.623 51.529 C 215.319 52.120,216.511 52.257,218.645 52.104 C 222.114 51.856,223.950 52.667,226.288 55.481 C 229.856 59.774,229.772 60.520,225.493 62.600 L 222.200 64.200 216.600 64.200 C 209.291 64.200,208.282 63.692,209.900 60.825 C 211.273 58.393,208.441 58.077,204.240 60.193 L 201.479 61.583 199.975 60.738 C 198.487 59.901,198.441 59.900,195.825 60.608 C 193.508 61.235,192.836 61.263,190.421 60.831 C 188.363 60.464,187.449 60.453,186.823 60.788 C 185.568 61.460,185.193 60.965,185.463 58.993 C 185.690 57.337,185.635 57.193,184.620 56.808 C 183.071 56.219,183.564 55.400,185.468 55.400 C 186.550 55.400,187.574 55.052,188.634 54.322 C 190.789 52.839,191.641 52.569,196.003 51.985 C 198.091 51.705,200.880 51.240,202.200 50.952 C 205.346 50.264,210.783 50.538,213.623 51.529 M163.639 66.153 C 163.283 66.582,163.325 66.762,163.823 66.953 C 164.890 67.363,165.200 67.239,165.200 66.400 C 165.200 65.480,164.314 65.340,163.639 66.153 M166.003 69.592 C 164.941 72.157,166.363 73.596,169.398 73.027 C 172.961 72.358,171.977 68.400,168.249 68.400 C 166.682 68.400,166.445 68.526,166.003 69.592 M296.304 73.282 C 296.801 73.819,297.071 74.410,296.904 74.594 C 296.737 74.778,296.823 74.800,297.097 74.643 C 297.692 74.300,300.440 76.138,302.400 78.188 C 303.170 78.994,304.385 80.016,305.100 80.459 C 305.835 80.915,306.400 81.599,306.400 82.033 C 306.400 82.455,306.591 82.800,306.824 82.800 C 307.057 82.800,307.152 82.953,307.036 83.141 C 306.716 83.659,307.720 84.828,308.611 84.975 C 309.045 85.047,309.362 85.286,309.316 85.506 C 309.270 85.725,309.585 86.224,310.016 86.614 C 310.447 87.005,310.800 87.164,310.800 86.969 C 310.800 86.774,312.735 88.501,315.100 90.807 L 319.400 95.000 314.807 90.300 C 308.656 84.007,309.657 84.295,316.194 90.699 C 319.734 94.167,319.224 93.581,314.600 88.869 C 310.860 85.058,306.990 81.384,306.000 80.705 C 305.010 80.026,303.199 78.555,301.976 77.435 C 299.349 75.030,294.928 71.793,296.304 73.282 M310.239 85.442 C 310.142 85.695,310.273 86.141,310.531 86.432 C 310.920 86.871,310.881 86.871,310.304 86.435 C 309.922 86.146,309.695 85.770,309.800 85.600 C 309.905 85.430,309.723 85.068,309.396 84.796 C 309.068 84.524,308.800 84.442,308.800 84.613 C 308.800 84.784,308.444 84.602,308.009 84.209 C 307.575 83.815,307.308 83.350,307.416 83.174 C 307.524 82.999,307.430 82.742,307.207 82.604 C 306.983 82.466,306.800 82.146,306.800 81.893 C 306.800 81.640,307.614 82.232,308.608 83.208 C 309.602 84.184,310.336 85.189,310.239 85.442 M190.137 89.789 C 189.106 90.511,188.166 92.770,187.798 95.415 C 187.244 99.388,186.307 103.159,183.925 111.000 C 181.346 119.491,180.716 120.635,178.815 120.271 C 174.746 119.492,169.316 118.226,165.686 117.210 C 139.821 109.971,140.472 109.988,138.007 116.509 C 137.323 118.319,136.564 120.309,136.320 120.931 C 135.283 123.578,129.573 123.769,126.000 121.275 C 122.495 118.829,106.679 117.509,102.387 119.305 C 101.221 119.793,95.600 125.032,95.600 125.631 C 95.600 126.877,90.982 130.314,89.660 130.053 C 89.363 129.995,89.239 130.139,89.384 130.374 C 89.754 130.974,87.731 131.663,86.023 131.520 C 84.737 131.412,84.588 131.274,84.474 130.091 C 84.405 129.372,84.511 128.832,84.710 128.891 C 84.908 128.951,85.595 128.378,86.236 127.618 C 86.876 126.858,87.130 126.390,86.800 126.580 C 86.470 126.769,86.674 126.401,87.254 125.762 C 88.850 124.004,89.556 122.328,89.989 119.279 C 90.205 117.757,90.925 115.361,91.590 113.956 C 93.025 110.924,93.317 107.441,92.100 107.874 C 88.639 109.106,80.392 113.528,77.470 115.720 C 73.630 118.601,72.959 119.315,71.625 121.943 C 70.521 124.118,68.720 125.908,67.292 126.251 C 62.611 127.376,61.021 131.039,64.619 132.407 C 66.472 133.112,65.499 135.048,62.544 136.541 C 61.559 137.038,60.882 138.021,59.413 141.088 C 57.550 144.978,56.272 146.800,55.409 146.800 C 54.789 146.800,52.648 149.166,52.106 150.451 C 51.862 151.029,51.096 152.146,50.405 152.933 C 49.234 154.267,44.377 167.502,43.401 172.019 C 43.237 172.778,42.737 174.120,42.289 175.000 C 41.842 175.880,41.394 177.320,41.293 178.200 C 41.193 179.080,40.951 180.103,40.755 180.474 C 40.560 180.844,40.400 182.228,40.400 183.548 C 40.400 184.868,40.177 186.455,39.903 187.074 C 39.609 187.742,39.395 190.073,39.378 192.800 C 39.362 195.330,39.199 200.649,39.015 204.619 C 38.778 209.763,38.815 212.408,39.145 213.819 C 39.718 216.270,40.906 225.794,41.025 228.898 C 41.073 230.162,41.246 231.512,41.410 231.898 C 41.573 232.284,41.849 234.130,42.022 236.000 C 42.196 237.870,42.549 240.570,42.807 242.000 C 43.065 243.430,43.318 245.020,43.370 245.534 C 43.422 246.048,43.660 246.590,43.900 246.738 C 44.140 246.887,44.456 247.546,44.601 248.204 C 44.747 248.862,45.202 250.300,45.614 251.400 C 46.025 252.500,46.568 254.210,46.820 255.200 C 47.303 257.098,48.794 258.986,50.300 259.608 C 51.460 260.087,52.797 262.285,52.799 263.716 C 52.801 265.310,54.106 267.654,55.982 269.432 C 56.872 270.275,57.600 271.120,57.600 271.310 C 57.600 271.971,60.142 275.416,62.563 278.038 C 63.903 279.488,66.080 281.953,67.400 283.514 C 70.329 286.979,72.164 288.000,75.458 288.000 C 77.802 288.000,77.924 288.055,80.232 290.133 C 84.634 294.099,85.934 294.859,87.825 294.575 C 89.919 294.261,91.170 294.876,94.273 297.742 C 97.362 300.594,106.517 306.711,108.158 307.019 C 109.845 307.335,113.762 306.199,114.914 305.059 C 115.401 304.577,116.401 303.758,117.135 303.239 C 118.556 302.235,118.644 301.414,117.777 297.256 C 117.425 295.570,117.919 295.214,120.624 295.206 C 123.680 295.197,124.229 294.621,123.616 292.067 C 123.152 290.134,121.449 288.000,120.369 288.000 C 119.758 288.000,119.954 286.136,120.623 285.581 C 120.966 285.296,121.513 284.424,121.840 283.643 C 122.166 282.861,123.075 281.694,123.858 281.048 C 124.642 280.402,125.612 279.105,126.015 278.165 C 127.275 275.226,130.432 274.800,134.335 277.042 C 135.361 277.632,136.881 278.456,137.714 278.873 C 139.408 279.723,139.350 280.400,137.583 280.400 C 134.339 280.400,132.981 283.850,135.031 286.880 C 136.376 288.867,136.862 294.533,136.050 298.764 C 134.633 306.152,135.197 308.116,139.033 309.150 C 156.395 313.830,155.908 313.848,157.615 308.441 C 159.621 302.083,161.303 300.146,163.245 301.956 C 164.573 303.193,167.427 304.400,169.024 304.400 C 171.715 304.400,172.461 306.167,171.858 311.111 C 171.131 317.069,171.549 317.424,181.937 319.682 C 191.120 321.677,191.002 321.701,193.253 317.427 C 194.487 315.087,194.734 314.179,194.889 311.435 C 195.021 309.091,195.488 306.988,196.583 303.800 C 197.415 301.380,198.576 297.524,199.165 295.230 C 200.553 289.821,200.866 289.569,205.600 290.043 C 207.470 290.231,212.330 290.567,216.400 290.790 C 220.470 291.013,224.340 291.299,225.000 291.426 C 225.660 291.552,227.010 291.456,228.000 291.212 C 228.990 290.969,232.230 290.605,235.200 290.405 C 246.777 289.624,258.078 284.005,264.632 275.773 C 268.553 270.847,268.886 270.237,270.798 264.454 C 271.697 261.736,272.944 258.497,273.568 257.256 C 275.187 254.041,276.295 248.947,276.570 243.455 C 276.892 237.054,276.980 236.994,279.870 241.200 C 282.784 245.440,286.800 245.976,286.800 242.125 C 286.800 238.373,289.645 238.651,293.369 242.766 C 294.448 243.958,295.491 243.798,296.404 242.300 C 297.483 240.531,297.419 240.208,295.800 239.253 C 295.030 238.799,294.400 238.173,294.400 237.862 C 294.400 237.018,293.306 236.269,291.244 235.702 C 289.532 235.230,288.796 235.089,285.301 234.560 C 283.902 234.349,281.938 231.779,280.288 228.000 C 279.182 225.470,278.596 224.924,276.370 224.354 C 274.471 223.867,274.396 223.791,273.803 221.753 C 272.677 217.878,270.265 215.981,269.776 218.586 C 269.270 221.286,267.767 221.388,265.477 218.877 C 264.736 218.065,263.211 216.404,262.088 215.186 C 259.816 212.722,259.834 212.490,262.400 211.209 C 270.438 207.195,275.800 198.376,278.403 184.890 C 282.430 164.023,272.204 149.909,245.265 139.152 C 237.488 136.047,237.729 136.951,241.026 123.300 C 242.447 117.415,243.968 111.293,244.405 109.696 C 246.211 103.097,246.146 103.027,235.777 100.402 C 225.911 97.905,226.693 97.278,223.559 110.200 C 218.834 129.679,218.679 129.945,213.163 128.062 C 211.973 127.656,209.708 127.010,208.130 126.626 C 203.890 125.595,203.887 125.590,204.379 118.951 C 204.824 112.939,204.985 112.163,207.769 102.623 C 210.489 93.301,210.861 93.881,200.435 91.178 C 192.091 89.015,191.379 88.919,190.137 89.789 M199.996 92.165 C 204.739 93.376,207.167 94.189,207.734 94.756 L 208.561 95.584 207.651 99.492 C 207.151 101.641,206.224 105.200,205.591 107.400 C 204.376 111.626,202.000 122.792,202.000 124.278 C 202.000 126.204,203.538 127.188,208.806 128.630 C 219.765 131.629,219.062 132.487,224.559 109.400 C 227.161 98.472,226.531 98.937,235.631 101.220 C 246.038 103.830,245.536 102.030,240.979 120.392 C 236.785 137.288,236.697 136.631,243.494 139.213 C 273.611 150.657,283.782 167.659,275.191 192.200 C 272.397 200.181,266.929 205.942,258.800 209.470 C 253.487 211.777,253.403 212.768,258.236 216.114 C 274.073 227.078,277.851 241.475,270.222 261.800 C 263.927 278.572,252.671 287.937,237.230 289.249 C 234.683 289.466,231.139 289.838,229.354 290.077 C 227.569 290.317,225.139 290.389,223.954 290.238 C 222.769 290.088,219.280 289.808,216.200 289.617 C 213.120 289.425,208.552 288.978,206.048 288.622 C 199.626 287.710,199.503 287.807,197.826 295.089 C 197.265 297.523,196.195 301.468,195.447 303.857 C 194.700 306.246,193.779 309.730,193.401 311.600 C 191.516 320.928,191.509 320.932,181.459 318.427 C 172.882 316.290,172.658 316.070,173.949 311.047 C 174.408 309.261,175.334 305.370,176.006 302.400 C 176.678 299.430,177.513 295.830,177.862 294.400 C 180.679 282.843,180.884 283.341,172.400 281.173 C 165.307 279.360,164.303 279.289,163.327 280.529 C 162.652 281.388,160.665 288.741,159.795 293.600 C 159.657 294.370,159.024 296.620,158.387 298.600 C 157.750 300.580,156.846 303.730,156.376 305.600 C 154.825 311.782,154.855 311.771,145.787 309.563 C 136.088 307.201,136.445 307.753,138.444 298.200 C 139.672 292.334,140.489 289.087,142.572 281.803 C 144.057 276.608,143.900 274.617,141.923 273.559 C 140.613 272.858,127.534 269.452,113.062 266.043 C 103.821 263.866,103.441 263.358,106.440 257.179 C 107.342 255.320,108.882 251.731,109.863 249.202 C 112.884 241.408,114.131 240.995,124.943 244.205 C 132.472 246.441,136.321 243.984,138.282 235.689 C 138.839 233.330,139.923 229.150,140.691 226.400 C 142.681 219.269,144.960 210.439,146.783 202.800 C 147.649 199.170,149.174 193.050,150.171 189.200 C 151.168 185.350,152.440 180.130,152.996 177.600 C 153.553 175.070,154.455 171.470,155.000 169.600 C 162.742 143.036,161.527 138.869,144.909 135.000 C 137.474 133.269,137.649 133.335,137.348 132.135 C 136.786 129.895,140.125 115.697,141.549 114.273 C 142.783 113.040,145.119 113.273,152.419 115.359 C 161.364 117.916,178.029 122.000,179.515 122.000 C 182.252 122.000,182.963 120.705,185.221 111.600 C 186.339 107.090,187.588 102.230,187.995 100.800 C 188.403 99.370,189.044 96.782,189.420 95.048 C 190.575 89.719,190.499 89.740,199.996 92.165 M323.236 98.000 C 323.546 98.550,323.958 99.115,324.151 99.255 C 324.344 99.396,324.361 99.756,324.187 100.055 C 324.014 100.355,324.019 100.467,324.199 100.303 C 324.379 100.140,324.782 100.219,325.093 100.478 C 325.405 100.736,325.277 100.299,324.809 99.506 C 323.777 97.756,322.301 96.344,323.236 98.000 M327.137 102.838 C 328.095 103.893,328.322 104.369,327.937 104.523 C 327.589 104.662,327.661 104.748,328.143 104.768 C 328.609 104.788,328.806 105.009,328.670 105.361 C 328.543 105.694,328.768 106.003,329.228 106.123 C 329.652 106.234,330.000 106.516,330.000 106.750 C 330.000 106.984,329.730 107.071,329.400 106.945 C 329.070 106.818,328.800 106.914,328.800 107.157 C 328.800 107.401,328.935 107.571,329.100 107.535 C 329.700 107.406,331.600 108.392,331.600 108.833 C 331.600 109.082,331.330 109.182,331.000 109.055 C 330.635 108.915,330.400 109.055,330.400 109.413 C 330.400 110.012,331.210 110.057,331.635 109.482 C 331.985 109.007,334.075 112.355,333.753 112.876 C 333.591 113.138,333.656 113.212,333.911 113.055 C 334.566 112.650,334.986 113.630,334.351 114.082 C 333.933 114.381,333.977 114.418,334.537 114.236 C 335.057 114.067,335.336 114.233,335.484 114.798 C 335.599 115.239,335.872 115.600,336.089 115.600 C 336.307 115.600,336.383 115.868,336.257 116.195 C 336.125 116.539,336.234 116.750,336.514 116.695 C 336.781 116.643,336.975 116.913,336.945 117.296 C 336.915 117.678,337.042 117.898,337.228 117.783 C 337.725 117.476,338.919 119.484,338.573 120.044 C 338.396 120.330,338.446 120.419,338.694 120.265 C 339.203 119.951,340.625 121.998,340.142 122.350 C 339.628 122.725,339.466 124.130,339.973 123.817 C 340.208 123.671,340.400 123.732,340.400 123.952 C 340.400 124.171,340.745 124.324,341.166 124.293 C 341.914 124.236,341.915 124.202,341.199 122.799 C 339.407 119.285,329.792 105.510,327.400 103.027 C 326.520 102.114,326.402 102.029,327.137 102.838 M341.280 125.815 C 341.534 126.374,341.963 126.746,342.232 126.643 C 343.158 126.288,343.224 126.959,342.313 127.465 C 341.523 127.903,341.501 127.974,342.147 127.986 C 342.684 127.996,342.837 128.216,342.692 128.770 C 342.551 129.310,342.656 129.477,343.045 129.327 C 343.544 129.136,343.820 129.881,343.637 130.930 C 343.606 131.111,343.738 131.162,343.932 131.042 C 344.376 130.768,345.118 132.370,344.977 133.300 C 344.859 134.075,345.792 134.260,346.232 133.549 C 346.421 133.243,346.634 133.317,346.892 133.779 C 347.328 134.558,346.914 135.231,346.455 134.488 C 346.223 134.114,345.972 134.140,345.376 134.601 C 344.624 135.184,344.623 135.194,345.366 134.933 C 345.879 134.753,346.040 134.812,345.854 135.112 C 345.702 135.358,345.931 135.749,346.363 135.980 C 347.507 136.592,347.926 136.470,347.024 135.787 C 346.596 135.464,346.439 135.200,346.675 135.200 C 347.258 135.200,348.056 136.211,347.730 136.537 C 347.585 136.682,347.677 136.800,347.933 136.800 C 348.190 136.800,348.400 137.100,348.400 137.467 C 348.400 137.833,348.514 138.019,348.654 137.879 C 348.991 137.542,348.007 135.200,347.528 135.200 C 347.322 135.200,347.259 135.027,347.390 134.817 C 347.662 134.377,345.430 129.863,343.624 127.200 C 342.953 126.210,342.400 125.670,342.396 126.000 C 342.389 126.526,342.342 126.527,342.015 126.011 C 341.769 125.622,341.805 125.317,342.121 125.117 C 342.423 124.925,342.271 124.810,341.709 124.806 C 340.899 124.801,340.860 124.893,341.280 125.815 M344.000 128.624 C 344.000 128.941,344.158 129.200,344.351 129.200 C 344.715 129.200,345.741 131.356,345.607 131.838 C 345.566 131.988,345.746 132.243,346.009 132.405 C 346.351 132.617,346.360 132.777,346.043 132.974 C 345.651 133.216,345.525 132.961,345.634 132.145 C 345.653 132.004,345.497 131.779,345.288 131.645 C 344.480 131.125,342.805 127.308,343.600 127.800 C 343.820 127.936,344.000 128.307,344.000 128.624 M346.800 137.343 C 346.800 137.678,346.983 138.066,347.207 138.204 C 347.430 138.342,347.509 138.623,347.383 138.828 C 347.256 139.032,347.355 139.200,347.603 139.200 C 348.210 139.200,347.935 137.106,347.300 136.898 C 347.025 136.807,346.800 137.008,346.800 137.343 M348.583 138.772 C 348.709 138.977,348.639 139.252,348.427 139.384 C 348.201 139.523,348.381 140.200,348.858 141.009 C 349.533 142.153,349.577 142.434,349.105 142.615 C 348.383 142.892,348.353 144.000,349.067 144.000 C 349.360 144.000,349.600 144.164,349.600 144.365 C 349.600 144.883,348.275 144.624,348.090 144.069 C 347.984 143.752,347.745 143.797,347.329 144.214 C 346.536 145.007,346.939 146.000,348.054 146.000 C 348.538 146.000,348.815 146.118,348.670 146.263 C 348.525 146.408,348.630 146.803,348.903 147.140 C 349.213 147.522,349.228 147.651,348.945 147.481 C 348.269 147.076,347.399 148.276,347.917 148.900 C 348.374 149.451,348.400 149.562,348.400 150.971 C 348.400 151.506,348.670 152.213,349.000 152.543 C 349.330 152.873,349.600 153.336,349.600 153.571 C 349.600 153.807,349.975 154.000,350.433 154.000 C 351.452 154.000,351.261 154.837,350.111 155.416 C 349.657 155.644,349.036 156.038,348.732 156.290 C 348.386 156.578,347.173 156.685,345.490 156.577 C 342.341 156.374,342.439 156.144,343.380 161.487 C 343.988 164.946,344.411 166.023,345.688 167.375 C 346.353 168.078,346.430 168.548,346.209 170.546 C 346.066 171.837,346.133 173.727,346.356 174.746 C 346.579 175.766,346.936 178.342,347.149 180.471 C 347.522 184.199,347.611 184.453,349.568 187.353 C 350.686 189.009,351.600 190.528,351.600 190.728 C 351.600 190.928,352.320 192.151,353.199 193.446 C 354.079 194.741,354.799 196.267,354.799 196.838 C 354.801 199.394,357.188 199.740,357.386 197.214 C 357.441 196.521,357.691 195.749,357.943 195.497 C 358.194 195.246,358.400 194.806,358.400 194.520 C 358.400 194.234,358.760 194.000,359.200 194.000 C 359.693 194.000,360.002 193.731,360.006 193.300 C 360.011 192.702,360.069 192.687,360.400 193.200 C 360.613 193.530,360.808 193.620,360.834 193.400 C 360.859 193.180,361.024 193.450,361.200 194.000 C 361.708 195.587,361.665 202.175,361.142 202.698 C 360.799 203.041,360.874 203.106,361.442 202.956 C 362.144 202.771,362.200 202.305,362.200 196.617 C 362.200 191.385,362.716 187.941,362.843 192.324 L 362.886 193.800 363.266 192.101 C 363.550 190.834,363.488 189.783,363.023 187.969 C 362.681 186.630,362.387 184.605,362.372 183.468 C 362.356 182.330,362.210 181.060,362.047 180.644 C 361.884 180.228,361.794 181.351,361.849 183.139 C 361.903 184.928,362.032 186.529,362.136 186.696 C 362.239 186.863,361.711 187.000,360.962 187.000 C 360.213 187.000,359.600 186.865,359.600 186.700 C 359.600 186.414,359.739 186.366,360.900 186.250 C 361.229 186.217,361.420 185.412,361.458 183.902 C 361.489 182.639,361.393 181.680,361.244 181.773 C 361.095 181.865,360.994 181.316,361.019 180.552 C 361.045 179.789,360.926 179.078,360.757 178.973 C 360.587 178.868,360.641 178.227,360.878 177.548 C 361.206 176.607,361.188 176.240,360.803 176.002 C 360.525 175.830,360.428 175.478,360.588 175.220 C 360.748 174.961,360.546 174.370,360.139 173.906 C 359.733 173.442,359.625 173.194,359.900 173.355 C 360.228 173.547,360.400 173.382,360.400 172.874 C 360.400 171.593,359.920 169.602,359.651 169.768 C 359.513 169.853,359.374 169.483,359.341 168.944 C 359.196 166.533,358.718 164.967,358.380 165.800 C 358.202 166.240,358.044 166.375,358.028 166.100 C 357.989 165.407,357.333 165.468,357.333 166.164 C 357.333 166.481,357.633 166.671,358.017 166.597 C 358.510 166.502,358.700 166.736,358.700 167.441 C 358.700 168.352,358.662 168.369,358.120 167.708 C 357.577 167.044,357.552 167.054,357.721 167.856 C 357.821 168.326,357.747 168.956,357.557 169.256 C 357.141 169.912,357.111 169.740,357.041 166.307 C 357.004 164.460,357.146 163.553,357.493 163.420 C 357.772 163.313,357.979 162.904,357.954 162.513 C 357.910 161.838,357.897 161.839,357.720 162.521 C 357.571 163.097,357.418 163.147,356.962 162.769 C 356.473 162.362,356.492 162.216,357.096 161.747 C 357.766 161.226,357.766 161.174,357.100 160.656 C 356.715 160.357,356.413 159.772,356.428 159.356 C 356.455 158.645,356.477 158.648,356.800 159.400 C 356.989 159.840,357.156 159.996,357.172 159.746 C 357.187 159.496,356.920 158.686,356.578 157.946 C 356.219 157.168,356.034 156.980,356.141 157.501 C 356.242 157.996,356.184 158.314,356.010 158.206 C 355.837 158.099,355.610 157.565,355.506 157.018 C 355.401 156.471,355.470 156.119,355.658 156.236 C 355.846 156.352,356.000 156.257,356.000 156.024 C 356.000 155.791,355.751 155.600,355.447 155.600 C 355.142 155.600,354.802 155.250,354.690 154.822 C 354.572 154.372,354.173 154.066,353.743 154.098 C 352.785 154.169,350.735 152.829,351.042 152.332 C 351.171 152.123,351.530 152.278,351.838 152.676 C 352.378 153.371,352.425 153.368,353.026 152.600 C 353.626 151.835,353.641 151.852,353.379 153.000 C 353.113 154.167,353.124 154.178,353.782 153.400 C 354.155 152.960,354.330 152.870,354.171 153.200 C 353.948 153.663,353.996 153.695,354.381 153.340 C 354.991 152.777,354.558 151.165,353.868 151.429 C 353.562 151.547,353.344 151.199,353.292 150.509 C 353.228 149.661,353.300 149.541,353.598 150.000 C 354.072 150.730,354.073 150.102,353.600 149.000 C 353.320 148.348,353.251 148.325,353.228 148.876 C 353.213 149.248,352.992 149.681,352.738 149.838 C 352.452 150.015,352.385 149.948,352.562 149.662 C 352.729 149.391,352.599 149.200,352.247 149.200 C 351.917 149.200,351.546 149.037,351.423 148.837 C 351.300 148.638,351.587 148.576,352.062 148.700 C 352.653 148.855,352.835 148.780,352.639 148.463 C 352.479 148.205,352.584 147.989,352.876 147.975 C 353.164 147.961,353.019 147.795,352.553 147.607 C 352.073 147.413,351.612 146.777,351.491 146.140 C 351.293 145.105,351.320 145.076,351.825 145.767 C 352.127 146.180,352.280 146.671,352.164 146.859 C 352.048 147.047,352.143 147.200,352.376 147.200 C 352.941 147.200,352.973 147.333,351.547 143.749 C 350.232 140.442,349.516 139.228,349.833 140.842 L 350.021 141.800 349.549 140.900 C 349.290 140.405,348.915 140.000,348.715 140.000 C 348.516 140.000,348.466 139.817,348.604 139.593 C 348.742 139.370,349.021 139.289,349.223 139.414 C 349.425 139.539,349.484 139.362,349.353 139.021 C 349.222 138.679,348.943 138.400,348.734 138.400 C 348.524 138.400,348.456 138.568,348.583 138.772 M350.938 146.500 C 350.726 146.843,350.613 146.838,350.493 146.480 C 350.405 146.216,350.174 146.000,349.979 146.000 C 349.784 146.000,349.736 146.315,349.871 146.700 C 350.055 147.222,349.998 147.290,349.646 146.967 C 348.861 146.247,349.530 145.134,350.451 145.627 C 350.887 145.861,351.099 146.240,350.938 146.500 M196.303 151.150 C 195.337 152.298,193.199 159.688,190.965 169.600 C 190.444 171.910,189.591 175.240,189.068 177.000 C 184.696 191.720,184.652 191.661,203.000 195.418 C 205.915 196.015,207.504 196.217,215.600 197.018 C 221.949 197.646,229.678 195.081,234.066 190.888 C 240.121 185.103,242.095 176.849,239.027 170.146 C 235.885 163.283,224.012 155.774,212.295 153.239 C 210.147 152.775,206.471 151.856,204.125 151.197 C 198.675 149.667,197.557 149.660,196.303 151.150 M207.194 155.370 C 209.011 155.895,209.787 155.925,211.716 155.545 C 214.519 154.994,216.253 155.408,219.333 157.365 C 220.470 158.088,222.660 159.158,224.200 159.742 C 238.042 164.996,242.947 174.460,236.668 183.800 C 232.921 189.374,230.335 191.629,227.000 192.228 C 226.120 192.386,224.660 193.021,223.755 193.639 C 220.545 195.832,217.710 196.562,214.741 195.961 C 213.563 195.723,211.340 195.392,209.800 195.225 C 208.151 195.047,206.080 194.486,204.761 193.861 C 203.291 193.164,201.850 192.799,200.561 192.797 C 188.917 192.781,185.114 185.229,192.032 175.860 C 194.040 173.141,194.300 172.589,193.975 171.734 C 193.085 169.394,195.220 164.518,198.052 162.425 C 199.264 161.529,199.296 161.428,199.085 159.111 C 198.966 157.797,199.058 156.181,199.288 155.519 L 199.708 154.316 202.354 154.526 C 203.809 154.642,205.987 155.021,207.194 155.370 M353.213 165.500 C 353.220 166.105,353.471 166.923,353.770 167.319 C 354.070 167.714,354.229 168.369,354.123 168.773 C 353.849 169.822,354.749 170.220,355.407 169.340 C 355.927 168.644,355.947 168.654,355.733 169.500 C 355.609 169.995,355.327 170.400,355.107 170.400 C 354.887 170.400,354.793 170.850,354.898 171.400 C 355.021 172.045,354.907 172.400,354.578 172.400 C 354.297 172.400,353.976 172.625,353.865 172.900 C 353.737 173.217,353.652 173.161,353.632 172.747 C 353.614 172.387,353.210 171.991,352.734 171.867 C 352.003 171.676,351.948 171.544,352.383 171.020 C 352.751 170.577,352.765 170.400,352.433 170.400 C 352.142 170.400,352.002 169.808,352.061 168.824 C 352.112 167.957,352.299 167.338,352.477 167.447 C 353.006 167.775,352.845 167.042,352.177 166.088 C 351.505 165.129,351.698 164.400,352.624 164.400 C 352.983 164.400,353.205 164.815,353.213 165.500 M356.030 175.310 C 356.014 175.470,355.997 176.095,355.994 176.700 C 355.989 177.557,355.902 177.668,355.600 177.200 C 355.074 176.386,355.096 174.699,355.630 174.877 C 355.867 174.956,356.047 175.151,356.030 175.310 M359.895 178.382 C 359.860 179.253,359.734 179.868,359.616 179.749 C 359.283 179.416,359.322 176.800,359.659 176.800 C 359.823 176.800,359.929 177.512,359.895 178.382 M358.567 178.543 C 358.334 179.148,357.600 179.483,357.600 178.983 C 357.600 178.698,358.568 177.651,358.709 177.783 C 358.770 177.839,358.705 178.181,358.567 178.543 M357.600 179.600 C 357.600 179.820,357.195 179.997,356.700 179.994 C 355.972 179.989,355.915 179.914,356.400 179.600 C 357.176 179.099,357.600 179.099,357.600 179.600 M357.116 181.134 C 356.940 182.044,356.000 182.184,356.000 181.300 C 356.000 180.876,356.276 180.533,356.616 180.533 C 356.956 180.533,357.181 180.803,357.116 181.134 M358.800 186.367 C 358.800 187.279,358.251 188.000,357.557 188.000 C 356.817 188.000,356.489 186.844,357.067 186.267 C 357.466 185.868,358.800 185.945,358.800 186.367 M362.763 203.033 C 362.742 203.455,362.727 204.565,362.728 205.500 C 362.732 207.530,362.646 207.575,361.840 205.960 C 361.269 204.816,361.272 204.761,361.876 205.260 C 362.458 205.740,362.485 205.711,362.120 205.000 C 361.893 204.560,361.760 203.971,361.824 203.690 C 361.888 203.410,361.848 203.366,361.736 203.592 C 361.624 203.819,361.365 203.902,361.161 203.776 C 360.957 203.650,360.683 204.087,360.550 204.748 C 360.418 205.408,360.060 206.045,359.755 206.162 C 359.003 206.450,359.050 207.967,359.819 208.263 C 360.175 208.399,360.686 208.182,361.020 207.750 C 361.527 207.096,361.571 207.090,361.358 207.700 C 361.078 208.504,361.614 208.626,362.320 207.920 C 362.693 207.547,362.800 207.549,362.800 207.933 C 362.800 208.203,362.530 208.529,362.200 208.655 C 361.426 208.952,361.425 209.958,362.198 210.254 C 362.526 210.381,362.678 210.690,362.534 210.942 C 362.390 211.194,362.426 211.260,362.614 211.088 C 363.278 210.484,363.173 209.526,362.469 209.770 C 361.928 209.957,361.943 209.891,362.545 209.424 C 362.954 209.106,363.333 208.292,363.386 207.615 C 363.440 206.938,363.599 206.267,363.742 206.125 C 363.884 205.983,363.987 205.582,363.972 205.233 C 363.951 204.767,363.853 204.811,363.599 205.400 C 363.340 206.003,363.265 205.781,363.293 204.499 C 363.330 202.850,362.838 201.491,362.763 203.033 M277.300 206.812 C 275.938 207.360,276.165 208.752,278.282 212.833 C 281.356 218.759,284.865 220.681,286.804 217.500 C 288.585 214.580,287.664 212.550,283.780 210.832 C 282.847 210.420,281.784 209.558,281.394 208.898 C 280.813 207.914,278.856 206.330,278.338 206.425 C 278.262 206.439,277.795 206.613,277.300 206.812 M181.276 211.524 C 180.363 212.437,179.461 215.123,178.786 218.934 C 178.546 220.290,177.828 223.110,177.190 225.200 C 176.552 227.290,175.655 230.620,175.197 232.600 C 174.738 234.580,173.471 239.759,172.382 244.109 C 169.378 256.096,169.266 255.843,178.600 258.124 C 190.053 260.923,195.269 262.000,197.329 261.992 C 198.468 261.987,201.209 262.287,203.419 262.659 C 210.479 263.846,220.033 261.971,225.594 258.309 C 234.565 252.400,236.311 239.408,229.378 230.154 C 225.113 224.460,212.682 218.006,199.000 214.382 C 196.360 213.682,192.670 212.670,190.800 212.131 C 185.766 210.681,182.337 210.463,181.276 211.524 M192.498 214.633 C 195.781 215.727,197.295 216.471,198.685 217.673 C 200.272 219.047,200.705 219.232,201.841 219.019 C 206.742 218.099,211.459 227.597,207.196 229.802 C 204.434 231.230,203.873 232.794,205.033 235.832 C 205.789 237.810,204.401 241.180,201.550 244.291 C 199.767 246.237,199.714 246.526,200.810 248.324 C 201.457 249.385,201.795 249.597,202.509 249.392 C 202.999 249.252,203.716 249.048,204.103 248.940 C 204.490 248.832,205.822 249.209,207.064 249.778 C 210.151 251.191,212.461 249.539,210.576 247.266 C 209.526 245.999,213.496 242.310,215.556 242.639 C 216.555 242.799,217.479 242.676,218.240 242.283 C 219.421 241.672,220.559 241.477,222.467 241.556 C 223.656 241.605,228.354 245.418,229.221 247.039 C 229.660 247.859,229.635 248.352,229.064 250.163 C 228.093 253.245,227.582 253.537,225.718 252.081 C 223.792 250.575,222.405 250.258,220.285 250.839 C 217.903 251.492,216.554 251.379,215.343 250.427 C 212.576 248.250,212.536 250.715,215.287 253.840 C 215.905 254.542,216.353 254.649,218.007 254.490 C 221.548 254.150,223.335 256.492,220.959 258.360 C 218.865 260.008,214.329 259.863,214.079 258.141 C 213.864 256.654,211.107 255.859,210.468 257.100 C 209.967 258.075,210.309 258.785,211.497 259.237 C 212.878 259.762,212.591 259.926,209.126 260.588 C 205.146 261.350,203.177 260.800,201.999 258.597 C 201.401 257.480,200.347 257.300,199.609 258.189 C 197.223 261.064,189.603 257.809,189.598 253.914 C 189.597 252.971,189.432 251.570,189.233 250.800 C 189.034 250.030,188.756 248.559,188.615 247.531 C 188.261 244.935,186.558 242.584,183.162 240.000 C 178.099 236.148,177.617 234.089,179.556 224.600 C 180.051 222.180,180.732 218.850,181.070 217.200 C 182.117 212.084,183.748 211.717,192.498 214.633 M296.599 216.872 C 295.797 217.503,295.026 217.720,293.807 217.657 C 291.474 217.536,290.897 218.271,291.615 220.446 C 292.052 221.770,292.057 222.299,291.641 223.333 C 290.669 225.750,290.683 225.945,291.926 227.187 C 294.053 229.314,295.324 228.858,296.554 225.526 C 296.935 224.495,297.780 222.980,298.432 222.159 C 301.084 218.822,299.592 214.518,296.599 216.872 M361.628 220.924 C 361.611 222.110,361.753 222.753,362.000 222.600 C 362.478 222.305,362.478 220.912,362.000 219.800 C 361.742 219.200,361.649 219.481,361.628 220.924 M220.496 227.263 C 221.860 228.716,222.308 229.452,222.010 229.750 C 221.031 230.729,216.831 227.139,217.355 225.773 C 217.737 224.777,218.503 225.140,220.496 227.263 M361.935 230.630 C 361.855 231.636,361.924 232.671,362.089 232.930 C 362.253 233.188,362.391 232.365,362.394 231.100 C 362.401 228.345,362.138 228.076,361.935 230.630 M225.600 233.000 C 225.874 233.330,226.379 233.600,226.723 233.600 C 228.267 233.600,230.007 236.576,228.700 236.980 C 225.070 238.102,223.200 237.157,223.200 234.200 C 223.200 232.252,224.458 231.624,225.600 233.000 M353.601 264.000 C 353.567 264.110,353.482 264.493,353.412 264.851 C 353.342 265.208,353.178 265.928,353.047 266.451 C 352.915 266.976,353.083 266.800,353.423 266.057 C 353.761 265.318,353.953 264.508,353.850 264.257 C 353.747 264.005,353.635 263.890,353.601 264.000 M122.396 270.995 C 123.456 272.272,121.668 273.508,120.480 272.320 C 119.542 271.382,119.927 270.765,121.651 270.446 C 121.789 270.421,122.124 270.668,122.396 270.995 M115.231 272.831 C 115.688 273.288,115.964 273.916,115.845 274.226 C 115.726 274.536,115.511 275.681,115.366 276.770 L 115.104 278.749 116.646 279.394 C 119.857 280.735,120.671 282.214,118.946 283.571 C 116.523 285.477,114.222 284.024,114.459 280.737 C 114.581 279.047,114.568 279.029,113.022 278.708 C 110.286 278.140,109.679 277.003,110.789 274.525 C 111.846 272.164,113.814 271.414,115.231 272.831 M167.749 283.887 C 168.173 284.828,169.091 285.834,170.121 286.487 C 175.712 290.035,176.843 295.935,172.811 300.527 C 169.320 304.503,160.598 296.228,162.934 291.157 C 164.207 288.393,165.249 284.648,165.009 283.695 C 164.372 281.154,166.586 281.309,167.749 283.887 M336.492 299.029 C 335.997 299.783,335.672 300.400,335.769 300.400 C 336.047 300.400,337.704 297.971,337.539 297.806 C 337.457 297.724,336.986 298.274,336.492 299.029 M314.997 324.900 L 305.800 334.200 315.100 325.003 C 323.742 316.458,324.580 315.600,324.297 315.600 C 324.240 315.600,320.055 319.785,314.997 324.900 M89.200 332.600 C 90.395 333.810,91.463 334.800,91.573 334.800 C 91.683 334.800,90.795 333.810,89.600 332.600 C 88.405 331.390,87.337 330.400,87.227 330.400 C 87.117 330.400,88.005 331.390,89.200 332.600 M302.600 336.311 C 301.720 337.130,300.550 338.124,300.000 338.518 C 299.035 339.210,299.045 339.210,300.307 338.527 C 301.445 337.911,304.873 334.783,304.381 334.810 C 304.282 334.816,303.480 335.491,302.600 336.311 M93.976 336.500 C 94.506 337.105,94.968 337.600,95.003 337.600 C 95.227 337.600,94.887 335.959,94.611 335.708 C 94.424 335.539,94.401 335.625,94.559 335.900 C 94.718 336.175,94.693 336.400,94.504 336.400 C 94.315 336.400,93.902 336.175,93.586 335.900 C 93.270 335.625,93.446 335.895,93.976 336.500 M297.000 340.668 C 296.120 341.457,295.760 341.916,296.200 341.688 C 296.941 341.304,299.151 339.179,298.770 339.217 C 298.676 339.226,297.880 339.879,297.000 340.668 M99.476 340.844 C 99.958 341.370,100.948 342.143,101.676 342.562 C 103.341 343.521,103.117 343.277,100.600 341.388 C 99.422 340.505,98.960 340.281,99.476 340.844 M288.500 345.465 C 288.225 345.576,288.000 345.990,288.000 346.385 C 288.000 346.792,287.521 347.301,286.895 347.561 C 286.287 347.812,285.252 348.479,284.595 349.042 L 283.400 350.066 284.600 349.284 C 285.260 348.854,286.711 348.044,287.825 347.483 C 288.939 346.921,290.109 346.140,290.425 345.747 C 290.844 345.225,290.647 345.279,289.700 345.943 C 288.441 346.826,287.905 346.655,288.880 345.680 C 289.386 345.174,289.317 345.135,288.500 345.465 M275.900 354.026 C 274.635 354.679,273.600 355.303,273.600 355.412 C 273.600 355.522,274.680 355.066,276.000 354.400 C 277.320 353.734,278.400 353.101,278.400 352.994 C 278.400 352.728,278.474 352.697,275.900 354.026 M268.700 357.627 C 267.875 358.063,267.200 358.508,267.200 358.618 C 267.200 358.796,270.359 357.319,270.767 356.951 C 271.227 356.534,270.025 356.928,268.700 357.627 M127.200 357.397 C 127.200 357.668,130.449 359.284,130.630 359.103 C 130.714 359.019,129.976 358.559,128.991 358.081 C 128.006 357.602,127.200 357.294,127.200 357.397 M135.718 360.579 C 135.236 361.128,136.206 361.928,136.724 361.409 C 136.839 361.294,136.729 361.200,136.479 361.200 C 136.229 361.200,136.129 360.930,136.255 360.600 C 136.538 359.863,136.354 359.856,135.718 360.579 M139.040 361.359 C 139.219 361.827,139.020 361.922,138.135 361.789 C 137.355 361.672,137.673 361.929,139.151 362.610 C 141.605 363.739,141.600 363.738,141.600 363.200 C 141.600 362.980,141.465 362.836,141.300 362.879 C 140.574 363.071,139.257 362.318,139.448 361.820 C 139.561 361.523,139.464 361.163,139.232 361.020 C 138.978 360.863,138.901 360.998,139.040 361.359 M256.000 363.000 C 255.450 363.314,255.180 363.572,255.400 363.572 C 255.620 363.572,256.250 363.314,256.800 363.000 C 257.350 362.686,257.620 362.428,257.400 362.428 C 257.180 362.428,256.550 362.686,256.000 363.000 M154.600 366.800 C 154.736 367.020,154.522 367.214,154.124 367.230 C 153.212 367.269,155.907 368.330,157.000 368.363 C 157.638 368.383,157.682 368.313,157.219 368.020 C 156.900 367.818,156.507 367.734,156.347 367.833 C 156.186 367.932,155.940 367.827,155.800 367.600 C 155.660 367.373,155.379 367.289,155.177 367.414 C 154.975 367.539,154.916 367.362,155.047 367.021 C 155.179 366.678,155.076 366.400,154.819 366.400 C 154.563 366.400,154.464 366.580,154.600 366.800 M156.000 366.800 C 155.670 367.013,155.490 367.204,155.600 367.224 C 156.149 367.325,157.127 367.587,158.300 367.946 C 159.015 368.165,159.600 368.260,159.600 368.158 C 159.600 368.056,159.965 368.167,160.411 368.406 C 160.857 368.645,161.117 369.011,160.988 369.220 C 160.858 369.429,161.258 369.589,161.876 369.575 C 162.948 369.550,162.959 369.533,162.100 369.188 C 161.112 368.790,160.917 368.156,161.700 367.887 C 161.975 367.792,161.885 367.762,161.500 367.820 C 161.116 367.878,160.715 367.786,160.610 367.616 C 160.505 367.446,159.957 367.396,159.393 367.503 C 158.829 367.611,158.396 367.542,158.431 367.350 C 158.583 366.515,158.355 366.246,157.963 366.800 C 157.644 367.252,157.489 367.276,157.336 366.900 C 157.094 366.303,156.802 366.282,156.000 366.800 M210.850 366.939 C 210.534 367.320,210.446 367.915,210.624 368.474 L 210.913 369.387 211.244 368.493 C 211.425 368.002,211.835 367.600,212.154 367.600 C 213.121 367.600,214.009 368.062,213.774 368.442 C 213.652 368.639,213.722 368.800,213.930 368.800 C 214.310 368.800,214.897 367.164,214.617 366.884 C 214.076 366.342,211.312 366.383,210.850 366.939 M164.000 369.400 C 163.591 369.893,163.622 370.000,164.175 370.000 C 164.573 370.000,164.733 369.816,164.568 369.548 C 164.397 369.271,164.504 369.174,164.844 369.298 C 165.150 369.409,165.355 369.703,165.300 369.950 C 165.187 370.459,165.418 370.492,166.700 370.148 C 167.594 369.908,167.986 368.800,167.176 368.800 C 166.943 368.800,166.888 369.025,167.053 369.300 C 167.228 369.591,167.039 369.549,166.602 369.200 C 165.912 368.649,165.874 368.664,166.142 369.378 C 166.419 370.114,166.395 370.119,165.686 369.478 C 164.770 368.649,164.629 368.642,164.000 369.400 M167.733 369.830 C 167.291 370.767,167.325 370.798,168.738 370.746 C 169.669 370.711,169.873 370.628,169.300 370.518 C 168.805 370.422,168.400 370.183,168.400 369.985 C 168.400 369.787,168.715 369.738,169.100 369.876 C 169.831 370.139,169.794 370.071,168.795 369.317 C 168.308 368.949,168.101 369.049,167.733 369.830 M211.600 369.254 C 211.600 369.415,211.105 369.622,210.500 369.713 C 209.821 369.816,210.126 369.903,211.300 369.940 C 212.707 369.984,213.200 370.158,213.200 370.608 C 213.200 371.056,213.462 371.149,214.200 370.964 C 215.216 370.709,215.644 371.362,214.700 371.726 C 214.425 371.832,214.605 371.899,215.100 371.874 C 215.595 371.850,216.000 371.680,216.000 371.498 C 216.000 370.793,214.986 370.131,214.212 370.330 C 213.517 370.509,213.474 370.449,213.912 369.914 C 214.355 369.373,214.235 369.268,213.012 369.125 C 212.235 369.035,211.600 369.093,211.600 369.254 M170.348 370.137 C 170.593 370.432,170.675 370.792,170.530 370.937 C 170.385 371.082,170.595 371.200,170.995 371.200 C 171.699 371.200,171.699 371.172,171.000 370.400 C 170.196 369.512,169.644 369.289,170.348 370.137 M172.133 371.006 C 172.133 371.333,172.493 371.600,172.933 371.600 C 173.373 371.600,173.658 371.549,173.567 371.487 C 173.475 371.425,173.115 371.157,172.767 370.893 C 172.258 370.507,172.133 370.529,172.133 371.006 M205.569 371.881 C 205.377 372.386,205.013 372.800,204.761 372.800 C 204.433 372.800,204.444 372.629,204.800 372.200 C 205.221 371.693,205.136 371.600,204.249 371.600 C 203.672 371.600,203.200 371.792,203.200 372.027 C 203.200 372.272,202.859 372.346,202.400 372.200 C 201.823 372.017,201.600 372.128,201.600 372.600 C 201.600 373.298,203.150 373.081,203.644 372.313 C 203.779 372.104,204.002 372.227,204.140 372.587 C 204.278 372.947,204.249 373.154,204.076 373.047 C 203.903 372.940,203.500 373.036,203.181 373.260 C 202.761 373.554,202.989 373.600,204.000 373.425 C 204.770 373.291,205.445 373.051,205.500 372.891 C 205.555 372.731,208.141 372.663,211.248 372.739 C 215.079 372.834,216.814 372.745,216.640 372.464 C 216.499 372.236,216.702 371.864,217.092 371.637 C 217.481 371.410,217.597 371.219,217.349 371.212 C 217.101 371.205,216.674 371.470,216.400 371.800 C 216.027 372.249,215.134 372.384,212.851 372.337 C 209.956 372.278,209.902 372.260,211.800 372.000 C 212.900 371.849,213.350 371.686,212.800 371.638 C 212.250 371.590,210.477 371.418,208.859 371.256 C 206.033 370.973,205.905 370.997,205.569 371.881 M191.393 372.650 C 191.695 372.953,192.181 373.197,192.471 373.194 C 192.897 373.189,192.894 373.120,192.455 372.842 C 191.994 372.551,191.994 372.467,192.455 372.306 C 192.755 372.202,192.515 372.112,191.921 372.108 C 191.006 372.101,190.926 372.183,191.393 372.650 M193.200 372.338 C 193.200 372.592,193.425 372.803,193.700 372.806 C 194.033 372.810,194.000 372.942,193.600 373.200 C 193.152 373.489,193.356 373.581,194.400 373.562 C 195.170 373.548,195.530 373.438,195.200 373.316 C 194.870 373.195,194.285 372.821,193.900 372.486 C 193.456 372.099,193.200 372.045,193.200 372.338 M198.274 372.518 C 198.381 372.692,198.251 373.097,197.985 373.418 C 197.574 373.914,197.784 374.000,199.400 374.000 C 201.083 374.000,201.239 373.928,200.775 373.370 C 200.382 372.897,200.368 372.667,200.719 372.450 C 200.976 372.291,200.487 372.170,199.633 372.181 C 198.779 372.191,198.167 372.343,198.274 372.518 M183.100 372.696 C 184.475 372.774,186.725 372.774,188.100 372.696 C 189.475 372.618,188.350 372.554,185.600 372.554 C 182.850 372.554,181.725 372.618,183.100 372.696 " stroke="none" fill="#d68337" fill-rule="evenodd"></path></g></svg>
